<svg xmlns="http://www.w3.org/2000/svg" xmlns:xlink="http://www.w3.org/1999/xlink" contentStyleType="text/css" height="733px" preserveAspectRatio="none" style="width:1115px;height:733px;background:#FFFFFF;" version="1.1" viewBox="0 0 1115 733" width="1115px" zoomAndPan="magnify"><defs/><g><text fill="#000000" font-family="sans-serif" font-size="14" font-weight="bold" lengthAdjust="spacing" textLength="312.4092" x="394.667" y="22.9951">&#1048;&#1077;&#1088;&#1072;&#1088;&#1093;&#1080;&#1103; &#1090;&#1088;&#1072;&#1085;&#1089;&#1087;&#1086;&#1088;&#1090;&#1072; (Sealed + Enum)</text><!--class EnginePowered--><g id="elem_EnginePowered"><rect codeLine="3" fill="#F1F1F1" height="96.8906" id="EnginePowered" rx="2.5" ry="2.5" style="stroke:#181818;stroke-width:0.5;" width="160.3262" x="153" y="456.2969"/><ellipse cx="177.0079" cy="472.2969" fill="#B4A7E5" rx="11" ry="11" style="stroke:#181818;stroke-width:1.0;"/><path d="M172.9298,468.0625 L172.9298,465.9063 L180.3204,465.9063 L180.3204,468.0625 L177.8517,468.0625 L177.8517,476.1406 L180.3204,476.1406 L180.3204,478.2969 L172.9298,478.2969 L172.9298,476.1406 L175.3985,476.1406 L175.3985,468.0625 L172.9298,468.0625 Z " fill="#000000"/><text fill="#000000" font-family="sans-serif" font-size="14" font-style="italic" lengthAdjust="spacing" textLength="108.3086" x="193.0097" y="477.1436">EnginePowered</text><line style="stroke:#181818;stroke-width:0.5;" x1="154" x2="312.3262" y1="488.2969" y2="488.2969"/><line style="stroke:#181818;stroke-width:0.5;" x1="154" x2="312.3262" y1="496.2969" y2="496.2969"/><ellipse cx="164" cy="509.9453" fill="#84BE84" rx="3" ry="3" style="stroke:#038048;stroke-width:1.0;"/><text fill="#000000" font-family="sans-serif" font-size="14" lengthAdjust="spacing" textLength="134.3262" x="173" y="513.292">Engine getEngine()</text><ellipse cx="164" cy="526.2422" fill="#84BE84" rx="3" ry="3" style="stroke:#038048;stroke-width:1.0;"/><text fill="#000000" font-family="sans-serif" font-size="14" lengthAdjust="spacing" textLength="91.5127" x="173" y="529.5889">startEngine()</text><ellipse cx="164" cy="542.5391" fill="#84BE84" rx="3" ry="3" style="stroke:#038048;stroke-width:1.0;"/><text fill="#000000" font-family="sans-serif" font-size="14" lengthAdjust="spacing" textLength="89.1406" x="173" y="545.8857">stopEngine()</text></g><!--class FuelType--><g id="elem_FuelType"><rect codeLine="9" fill="#F1F1F1" height="113.1875" id="FuelType" rx="2.5" ry="2.5" style="stroke:#181818;stroke-width:0.5;" width="95.7656" x="382" y="613.2969"/><ellipse cx="397" cy="629.2969" fill="#EB937F" rx="11" ry="11" style="stroke:#181818;stroke-width:1.0;"/><path d="M401.1094,635.2969 L393.3906,635.2969 L393.3906,622.9063 L401.1094,622.9063 L401.1094,625.0625 L395.8438,625.0625 L395.8438,627.7344 L400.6094,627.7344 L400.6094,629.8906 L395.8438,629.8906 L395.8438,633.1406 L401.1094,633.1406 L401.1094,635.2969 Z " fill="#000000"/><text fill="#000000" font-family="sans-serif" font-size="14" lengthAdjust="spacing" textLength="63.7656" x="411" y="634.1436">FuelType</text><line style="stroke:#181818;stroke-width:0.5;" x1="383" x2="476.7656" y1="645.2969" y2="645.2969"/><text fill="#000000" font-family="sans-serif" font-size="14" lengthAdjust="spacing" textLength="71.5791" x="388" y="662.292">GASOLINE</text><text fill="#000000" font-family="sans-serif" font-size="14" lengthAdjust="spacing" textLength="49.2871" x="388" y="678.5889">DIESEL</text><text fill="#000000" font-family="sans-serif" font-size="14" lengthAdjust="spacing" textLength="63.4717" x="388" y="694.8857">JET_FUEL</text><text fill="#000000" font-family="sans-serif" font-size="14" lengthAdjust="spacing" textLength="67.4502" x="388" y="711.1826">ELECTRIC</text><line style="stroke:#181818;stroke-width:0.5;" x1="383" x2="476.7656" y1="718.4844" y2="718.4844"/></g><!--class Transport--><g id="elem_Transport"><rect codeLine="16" fill="#F1F1F1" height="137.75" id="Transport" rx="2.5" ry="2.5" style="stroke:#181818;stroke-width:0.5;" width="189.625" x="179" y="44.2969"/><ellipse cx="235.687" cy="64.4297" fill="#A9DCDF" rx="11" ry="11" style="stroke:#181818;stroke-width:1.0;"/><path d="M235.7964,59.7734 L234.6401,64.8516 L236.9683,64.8516 L235.7964,59.7734 Z M234.312,57.5391 L237.2964,57.5391 L240.6558,69.9297 L238.2026,69.9297 L237.437,66.8672 L234.1558,66.8672 L233.4058,69.9297 L230.9683,69.9297 L234.312,57.5391 Z " fill="#000000"/><text fill="#000000" font-family="sans-serif" font-size="12" font-style="italic" lengthAdjust="spacing" textLength="54.1348" x="262.9951" y="60.4355">&#171;sealed&#187;</text><text fill="#000000" font-family="sans-serif" font-size="14" font-style="italic" lengthAdjust="spacing" textLength="67.751" x="256.187" y="76.2607">Transport</text><line style="stroke:#181818;stroke-width:0.5;" x1="180" x2="367.625" y1="84.5625" y2="84.5625"/><rect fill="none" height="6" style="stroke:#C82930;stroke-width:1.0;" width="6" x="187" y="95.2109"/><text fill="#000000" font-family="sans-serif" font-size="14" lengthAdjust="spacing" textLength="94.541" x="199" y="101.5576">model: String</text><rect fill="none" height="6" style="stroke:#C82930;stroke-width:1.0;" width="6" x="187" y="111.5078"/><text fill="#000000" font-family="sans-serif" font-size="14" lengthAdjust="spacing" textLength="86.5225" x="199" y="117.8545">capacity: int</text><line style="stroke:#181818;stroke-width:0.5;" x1="180" x2="367.625" y1="125.1563" y2="125.1563"/><ellipse cx="190" cy="138.8047" fill="#84BE84" rx="3" ry="3" style="stroke:#038048;stroke-width:1.0;"/><text fill="#000000" font-family="sans-serif" font-size="14" lengthAdjust="spacing" textLength="163.625" x="199" y="142.1514">getMaxSpeed(): double</text><ellipse cx="190" cy="155.1016" fill="#84BE84" rx="3" ry="3" style="stroke:#038048;stroke-width:1.0;"/><text fill="#000000" font-family="sans-serif" font-size="14" lengthAdjust="spacing" textLength="88.8193" x="199" y="158.4482">move(): void</text><ellipse cx="190" cy="171.3984" fill="#84BE84" rx="3" ry="3" style="stroke:#038048;stroke-width:1.0;"/><text fill="#000000" font-family="sans-serif" font-size="14" lengthAdjust="spacing" textLength="124.7148" x="199" y="174.7451">basicInfo(): String</text></g><!--class Engine--><g id="elem_Engine"><rect codeLine="24" fill="#F1F1F1" height="154.0469" id="Engine" rx="2.5" ry="2.5" style="stroke:#181818;stroke-width:0.5;" width="171.2432" x="937.5" y="242.2969"/><ellipse cx="993.8042" cy="262.4297" fill="#A9DCDF" rx="11" ry="11" style="stroke:#181818;stroke-width:1.0;"/><path d="M993.9136,257.7734 L992.7573,262.8516 L995.0854,262.8516 L993.9136,257.7734 Z M992.4292,255.5391 L995.4136,255.5391 L998.7729,267.9297 L996.3198,267.9297 L995.5542,264.8672 L992.2729,264.8672 L991.5229,267.9297 L989.0854,267.9297 L992.4292,255.5391 Z " fill="#000000"/><text fill="#000000" font-family="sans-serif" font-size="12" font-style="italic" lengthAdjust="spacing" textLength="54.1348" x="1012.3042" y="258.4355">&#171;sealed&#187;</text><text fill="#000000" font-family="sans-serif" font-size="14" font-style="italic" lengthAdjust="spacing" textLength="47.9814" x="1015.3809" y="274.2607">Engine</text><line style="stroke:#181818;stroke-width:0.5;" x1="938.5" x2="1107.7432" y1="282.5625" y2="282.5625"/><rect fill="none" height="6" style="stroke:#C82930;stroke-width:1.0;" width="6" x="945.5" y="293.2109"/><text fill="#000000" font-family="sans-serif" font-size="14" lengthAdjust="spacing" textLength="89.6602" x="957.5" y="299.5576">powerHP: int</text><rect fill="none" height="6" style="stroke:#C82930;stroke-width:1.0;" width="6" x="945.5" y="309.5078"/><text fill="#000000" font-family="sans-serif" font-size="14" lengthAdjust="spacing" textLength="119.1641" x="957.5" y="315.8545">running: boolean</text><line style="stroke:#181818;stroke-width:0.5;" x1="938.5" x2="1107.7432" y1="323.1563" y2="323.1563"/><ellipse cx="948.5" cy="336.8047" fill="#84BE84" rx="3" ry="3" style="stroke:#038048;stroke-width:1.0;"/><text fill="#000000" font-family="sans-serif" font-size="14" lengthAdjust="spacing" textLength="82.3252" x="957.5" y="340.1514">start(): void</text><ellipse cx="948.5" cy="353.1016" fill="#84BE84" rx="3" ry="3" style="stroke:#038048;stroke-width:1.0;"/><text fill="#000000" font-family="sans-serif" font-size="14" lengthAdjust="spacing" textLength="79.9531" x="957.5" y="356.4482">stop(): void</text><ellipse cx="948.5" cy="369.3984" fill="#84BE84" rx="3" ry="3" style="stroke:#038048;stroke-width:1.0;"/><text fill="#000000" font-family="sans-serif" font-size="14" lengthAdjust="spacing" textLength="145.2432" x="957.5" y="372.7451">isRunning(): boolean</text><ellipse cx="948.5" cy="385.6953" fill="#84BE84" rx="3" ry="3" style="stroke:#038048;stroke-width:1.0;"/><text fill="#000000" font-family="sans-serif" font-size="14" lengthAdjust="spacing" textLength="123.1289" x="957.5" y="389.042">getPowerHP(): int</text></g><!--class CombustionEngine--><g id="elem_CombustionEngine"><rect codeLine="33" fill="#F1F1F1" height="72.5625" id="CombustionEngine" rx="2.5" ry="2.5" style="stroke:#181818;stroke-width:0.5;" width="163.8311" x="348" y="468.2969"/><ellipse cx="363" cy="488.4297" fill="#ADD1B2" rx="11" ry="11" style="stroke:#181818;stroke-width:1.0;"/><path d="M365.9688,494.0703 Q365.3906,494.3672 364.75,494.5078 Q364.1094,494.6641 363.4063,494.6641 Q360.9063,494.6641 359.5781,493.0234 Q358.2656,491.3672 358.2656,488.2422 Q358.2656,485.1172 359.5781,483.4609 Q360.9063,481.8047 363.4063,481.8047 Q364.1094,481.8047 364.75,481.9609 Q365.4063,482.1172 365.9688,482.4141 L365.9688,485.1328 Q365.3438,484.5547 364.75,484.2891 Q364.1563,484.0078 363.5313,484.0078 Q362.1875,484.0078 361.5,485.0859 Q360.8125,486.1484 360.8125,488.2422 Q360.8125,490.3359 361.5,491.4141 Q362.1875,492.4766 363.5313,492.4766 Q364.1563,492.4766 364.75,492.2109 Q365.3438,491.9297 365.9688,491.3516 L365.9688,494.0703 Z " fill="#000000"/><text fill="#000000" font-family="sans-serif" font-size="12" font-style="italic" lengthAdjust="spacing" textLength="40.6641" x="422.5835" y="484.4355">&#171;final&#187;</text><text fill="#000000" font-family="sans-serif" font-size="14" lengthAdjust="spacing" textLength="131.8311" x="377" y="500.2607">CombustionEngine</text><line style="stroke:#181818;stroke-width:0.5;" x1="349" x2="510.8311" y1="508.5625" y2="508.5625"/><rect fill="none" height="6" style="stroke:#C82930;stroke-width:1.0;" width="6" x="356" y="519.2109"/><text fill="#000000" font-family="sans-serif" font-size="14" lengthAdjust="spacing" textLength="133.5742" x="368" y="525.5576">fuelType: FuelType</text><line style="stroke:#181818;stroke-width:0.5;" x1="349" x2="510.8311" y1="532.8594" y2="532.8594"/></g><!--class ElectricMotor--><g id="elem_ElectricMotor"><rect codeLine="37" fill="#F1F1F1" height="72.5625" id="ElectricMotor" rx="2.5" ry="2.5" style="stroke:#181818;stroke-width:0.5;" width="165.877" x="764" y="468.2969"/><ellipse cx="797.6948" cy="488.4297" fill="#ADD1B2" rx="11" ry="11" style="stroke:#181818;stroke-width:1.0;"/><path d="M800.6635,494.0703 Q800.0854,494.3672 799.4448,494.5078 Q798.8042,494.6641 798.101,494.6641 Q795.601,494.6641 794.2729,493.0234 Q792.9604,491.3672 792.9604,488.2422 Q792.9604,485.1172 794.2729,483.4609 Q795.601,481.8047 798.101,481.8047 Q798.8042,481.8047 799.4448,481.9609 Q800.101,482.1172 800.6635,482.4141 L800.6635,485.1328 Q800.0385,484.5547 799.4448,484.2891 Q798.851,484.0078 798.226,484.0078 Q796.8823,484.0078 796.1948,485.0859 Q795.5073,486.1484 795.5073,488.2422 Q795.5073,490.3359 796.1948,491.4141 Q796.8823,492.4766 798.226,492.4766 Q798.851,492.4766 799.4448,492.2109 Q800.0385,491.9297 800.6635,491.3516 L800.6635,494.0703 Z " fill="#000000"/><text fill="#000000" font-family="sans-serif" font-size="12" font-style="italic" lengthAdjust="spacing" textLength="40.6641" x="841.6836" y="484.4355">&#171;final&#187;</text><text fill="#000000" font-family="sans-serif" font-size="14" lengthAdjust="spacing" textLength="92.333" x="815.8492" y="500.2607">ElectricMotor</text><line style="stroke:#181818;stroke-width:0.5;" x1="765" x2="928.877" y1="508.5625" y2="508.5625"/><rect fill="none" height="6" style="stroke:#C82930;stroke-width:1.0;" width="6" x="772" y="519.2109"/><text fill="#000000" font-family="sans-serif" font-size="14" lengthAdjust="spacing" textLength="139.877" x="784" y="525.5576">batteryKWh: double</text><line style="stroke:#181818;stroke-width:0.5;" x1="765" x2="928.877" y1="532.8594" y2="532.8594"/></g><!--class Car--><g id="elem_Car"><rect codeLine="41" fill="#F1F1F1" height="56.2656" id="Car" rx="2.5" ry="2.5" style="stroke:#181818;stroke-width:0.5;" width="68.6641" x="124.5" y="291.2969"/><ellipse cx="139.5" cy="311.4297" fill="#ADD1B2" rx="11" ry="11" style="stroke:#181818;stroke-width:1.0;"/><path d="M142.4688,317.0703 Q141.8906,317.3672 141.25,317.5078 Q140.6094,317.6641 139.9063,317.6641 Q137.4063,317.6641 136.0781,316.0234 Q134.7656,314.3672 134.7656,311.2422 Q134.7656,308.1172 136.0781,306.4609 Q137.4063,304.8047 139.9063,304.8047 Q140.6094,304.8047 141.25,304.9609 Q141.9063,305.1172 142.4688,305.4141 L142.4688,308.1328 Q141.8438,307.5547 141.25,307.2891 Q140.6563,307.0078 140.0313,307.0078 Q138.6875,307.0078 138,308.0859 Q137.3125,309.1484 137.3125,311.2422 Q137.3125,313.3359 138,314.4141 Q138.6875,315.4766 140.0313,315.4766 Q140.6563,315.4766 141.25,315.2109 Q141.8438,314.9297 142.4688,314.3516 L142.4688,317.0703 Z " fill="#000000"/><text fill="#000000" font-family="sans-serif" font-size="12" font-style="italic" lengthAdjust="spacing" textLength="40.6641" x="151.5" y="307.4355">&#171;final&#187;</text><text fill="#000000" font-family="sans-serif" font-size="14" lengthAdjust="spacing" textLength="24.1104" x="159.7769" y="323.2607">Car</text><line style="stroke:#181818;stroke-width:0.5;" x1="125.5" x2="192.1641" y1="331.5625" y2="331.5625"/><line style="stroke:#181818;stroke-width:0.5;" x1="125.5" x2="192.1641" y1="339.5625" y2="339.5625"/></g><!--class ElectricCar--><g id="elem_ElectricCar"><rect codeLine="42" fill="#F1F1F1" height="56.2656" id="ElectricCar" rx="2.5" ry="2.5" style="stroke:#181818;stroke-width:0.5;" width="107.9883" x="459" y="291.2969"/><ellipse cx="474" cy="311.4297" fill="#ADD1B2" rx="11" ry="11" style="stroke:#181818;stroke-width:1.0;"/><path d="M476.9688,317.0703 Q476.3906,317.3672 475.75,317.5078 Q475.1094,317.6641 474.4063,317.6641 Q471.9063,317.6641 470.5781,316.0234 Q469.2656,314.3672 469.2656,311.2422 Q469.2656,308.1172 470.5781,306.4609 Q471.9063,304.8047 474.4063,304.8047 Q475.1094,304.8047 475.75,304.9609 Q476.4063,305.1172 476.9688,305.4141 L476.9688,308.1328 Q476.3438,307.5547 475.75,307.2891 Q475.1563,307.0078 474.5313,307.0078 Q473.1875,307.0078 472.5,308.0859 Q471.8125,309.1484 471.8125,311.2422 Q471.8125,313.3359 472.5,314.4141 Q473.1875,315.4766 474.5313,315.4766 Q475.1563,315.4766 475.75,315.2109 Q476.3438,314.9297 476.9688,314.3516 L476.9688,317.0703 Z " fill="#000000"/><text fill="#000000" font-family="sans-serif" font-size="12" font-style="italic" lengthAdjust="spacing" textLength="40.6641" x="505.6621" y="307.4355">&#171;final&#187;</text><text fill="#000000" font-family="sans-serif" font-size="14" lengthAdjust="spacing" textLength="75.9883" x="488" y="323.2607">ElectricCar</text><line style="stroke:#181818;stroke-width:0.5;" x1="460" x2="565.9883" y1="331.5625" y2="331.5625"/><line style="stroke:#181818;stroke-width:0.5;" x1="460" x2="565.9883" y1="339.5625" y2="339.5625"/></g><!--class Airplane--><g id="elem_Airplane"><rect codeLine="43" fill="#F1F1F1" height="56.2656" id="Airplane" rx="2.5" ry="2.5" style="stroke:#181818;stroke-width:0.5;" width="90.0645" x="229" y="291.2969"/><ellipse cx="244" cy="311.4297" fill="#ADD1B2" rx="11" ry="11" style="stroke:#181818;stroke-width:1.0;"/><path d="M246.9688,317.0703 Q246.3906,317.3672 245.75,317.5078 Q245.1094,317.6641 244.4063,317.6641 Q241.9063,317.6641 240.5781,316.0234 Q239.2656,314.3672 239.2656,311.2422 Q239.2656,308.1172 240.5781,306.4609 Q241.9063,304.8047 244.4063,304.8047 Q245.1094,304.8047 245.75,304.9609 Q246.4063,305.1172 246.9688,305.4141 L246.9688,308.1328 Q246.3438,307.5547 245.75,307.2891 Q245.1563,307.0078 244.5313,307.0078 Q243.1875,307.0078 242.5,308.0859 Q241.8125,309.1484 241.8125,311.2422 Q241.8125,313.3359 242.5,314.4141 Q243.1875,315.4766 244.5313,315.4766 Q245.1563,315.4766 245.75,315.2109 Q246.3438,314.9297 246.9688,314.3516 L246.9688,317.0703 Z " fill="#000000"/><text fill="#000000" font-family="sans-serif" font-size="12" font-style="italic" lengthAdjust="spacing" textLength="40.6641" x="266.7002" y="307.4355">&#171;final&#187;</text><text fill="#000000" font-family="sans-serif" font-size="14" lengthAdjust="spacing" textLength="58.0645" x="258" y="323.2607">Airplane</text><line style="stroke:#181818;stroke-width:0.5;" x1="230" x2="318.0645" y1="331.5625" y2="331.5625"/><line style="stroke:#181818;stroke-width:0.5;" x1="230" x2="318.0645" y1="339.5625" y2="339.5625"/></g><!--class Ship--><g id="elem_Ship"><rect codeLine="44" fill="#F1F1F1" height="56.2656" id="Ship" rx="2.5" ry="2.5" style="stroke:#181818;stroke-width:0.5;" width="68.6641" x="354.5" y="291.2969"/><ellipse cx="369.5" cy="311.4297" fill="#ADD1B2" rx="11" ry="11" style="stroke:#181818;stroke-width:1.0;"/><path d="M372.4688,317.0703 Q371.8906,317.3672 371.25,317.5078 Q370.6094,317.6641 369.9063,317.6641 Q367.4063,317.6641 366.0781,316.0234 Q364.7656,314.3672 364.7656,311.2422 Q364.7656,308.1172 366.0781,306.4609 Q367.4063,304.8047 369.9063,304.8047 Q370.6094,304.8047 371.25,304.9609 Q371.9063,305.1172 372.4688,305.4141 L372.4688,308.1328 Q371.8438,307.5547 371.25,307.2891 Q370.6563,307.0078 370.0313,307.0078 Q368.6875,307.0078 368,308.0859 Q367.3125,309.1484 367.3125,311.2422 Q367.3125,313.3359 368,314.4141 Q368.6875,315.4766 370.0313,315.4766 Q370.6563,315.4766 371.25,315.2109 Q371.8438,314.9297 372.4688,314.3516 L372.4688,317.0703 Z " fill="#000000"/><text fill="#000000" font-family="sans-serif" font-size="12" font-style="italic" lengthAdjust="spacing" textLength="40.6641" x="381.5" y="307.4355">&#171;final&#187;</text><text fill="#000000" font-family="sans-serif" font-size="14" lengthAdjust="spacing" textLength="30.5361" x="386.564" y="323.2607">Ship</text><line style="stroke:#181818;stroke-width:0.5;" x1="355.5" x2="422.1641" y1="331.5625" y2="331.5625"/><line style="stroke:#181818;stroke-width:0.5;" x1="355.5" x2="422.1641" y1="339.5625" y2="339.5625"/></g><!--class Bicycle--><g id="elem_Bicycle"><rect codeLine="45" fill="#F1F1F1" height="56.2656" id="Bicycle" rx="2.5" ry="2.5" style="stroke:#181818;stroke-width:0.5;" width="81.6768" x="7" y="291.2969"/><ellipse cx="22" cy="311.4297" fill="#ADD1B2" rx="11" ry="11" style="stroke:#181818;stroke-width:1.0;"/><path d="M24.9688,317.0703 Q24.3906,317.3672 23.75,317.5078 Q23.1094,317.6641 22.4063,317.6641 Q19.9063,317.6641 18.5781,316.0234 Q17.2656,314.3672 17.2656,311.2422 Q17.2656,308.1172 18.5781,306.4609 Q19.9063,304.8047 22.4063,304.8047 Q23.1094,304.8047 23.75,304.9609 Q24.4063,305.1172 24.9688,305.4141 L24.9688,308.1328 Q24.3438,307.5547 23.75,307.2891 Q23.1563,307.0078 22.5313,307.0078 Q21.1875,307.0078 20.5,308.0859 Q19.8125,309.1484 19.8125,311.2422 Q19.8125,313.3359 20.5,314.4141 Q21.1875,315.4766 22.5313,315.4766 Q23.1563,315.4766 23.75,315.2109 Q24.3438,314.9297 24.9688,314.3516 L24.9688,317.0703 Z " fill="#000000"/><text fill="#000000" font-family="sans-serif" font-size="12" font-style="italic" lengthAdjust="spacing" textLength="40.6641" x="40.5063" y="307.4355">&#171;final&#187;</text><text fill="#000000" font-family="sans-serif" font-size="14" lengthAdjust="spacing" textLength="49.6768" x="36" y="323.2607">Bicycle</text><line style="stroke:#181818;stroke-width:0.5;" x1="8" x2="87.6768" y1="331.5625" y2="331.5625"/><line style="stroke:#181818;stroke-width:0.5;" x1="8" x2="87.6768" y1="339.5625" y2="339.5625"/></g><g id="elem_GMN29"><path d="M602,299.2969 L602,339.5625 L902.0112,339.5625 L902.0112,309.2969 L892.0112,299.2969 L602,299.2969 " fill="#FEFFDD" style="stroke:#181818;stroke-width:0.5;"/><path d="M892.0112,299.2969 L892.0112,309.2969 L902.0112,309.2969 L892.0112,299.2969 " fill="#FEFFDD" style="stroke:#181818;stroke-width:1.0;"/><text fill="#000000" font-family="sans-serif" font-size="13" lengthAdjust="spacing" textLength="279.0112" x="608" y="316.3638">&#1042;&#1077;&#1083;&#1086;&#1089;&#1080;&#1087;&#1077;&#1076; &#1085;&#1077; &#1088;&#1077;&#1072;&#1083;&#1080;&#1079;&#1091;&#1077;&#1090; EnginePowered,</text><text fill="#000000" font-family="sans-serif" font-size="13" lengthAdjust="spacing" textLength="202.3633" x="608" y="331.4966">&#1090;&#1072;&#1082; &#1082;&#1072;&#1082; &#1091; &#1085;&#1077;&#1075;&#1086; &#1085;&#1077;&#1090; &#1076;&#1074;&#1080;&#1075;&#1072;&#1090;&#1077;&#1083;&#1103;</text></g><!--reverse link Transport to Car--><g id="link_Transport_Car"><path codeLine="47" d="M226.7105,198.1869 C205.7505,235.3669 189.82,263.6269 174.26,291.2269 " fill="none" id="Transport-backto-Car" style="stroke:#181818;stroke-width:1.0;"/><polygon fill="none" points="235.55,182.5069,221.4838,195.2404,231.9372,201.1334,235.55,182.5069" style="stroke:#181818;stroke-width:1.0;"/></g><!--reverse link Transport to ElectricCar--><g id="link_Transport_ElectricCar"><path codeLine="48" d="M382.6927,193.4846 C406.9627,212.1346 418.34,221.8869 441,242.2969 C458.02,257.6269 475.72,276.2769 489.32,291.2669 " fill="none" id="Transport-backto-ElectricCar" style="stroke:#181818;stroke-width:1.0;"/><polygon fill="none" points="368.42,182.5169,379.0368,198.2421,386.3486,188.727,368.42,182.5169" style="stroke:#181818;stroke-width:1.0;"/></g><!--reverse link Transport to Airplane--><g id="link_Transport_Airplane"><path codeLine="49" d="M274,200.5069 C274,237.6869 274,263.6269 274,291.2269 " fill="none" id="Transport-backto-Airplane" style="stroke:#181818;stroke-width:1.0;"/><polygon fill="none" points="274,182.5069,268,200.5069,280,200.5069,274,182.5069" style="stroke:#181818;stroke-width:1.0;"/></g><!--reverse link Transport to Ship--><g id="link_Transport_Ship"><path codeLine="50" d="M321.2895,198.1869 C342.2495,235.3669 358.18,263.6269 373.74,291.2269 " fill="none" id="Transport-backto-Ship" style="stroke:#181818;stroke-width:1.0;"/><polygon fill="none" points="312.45,182.5069,316.0628,201.1334,326.5162,195.2404,312.45,182.5069" style="stroke:#181818;stroke-width:1.0;"/></g><!--reverse link Transport to Bicycle--><g id="link_Transport_Bicycle"><path codeLine="51" d="M164.3467,191.6737 C139.9567,210.4137 128.76,220.6669 107,242.2969 C91.95,257.2469 77.32,276.0769 66.38,291.2469 " fill="none" id="Transport-backto-Bicycle" style="stroke:#181818;stroke-width:1.0;"/><polygon fill="none" points="178.62,180.7069,160.6911,186.916,168.0023,196.4315,178.62,180.7069" style="stroke:#181818;stroke-width:1.0;"/></g><!--reverse link Engine to CombustionEngine--><g id="link_Engine_CombustionEngine"><path codeLine="53" d="M921.5512,396.3639 C915.8712,399.5839 925.77,393.6769 920,396.2969 C784.77,457.6369 612.32,484.9569 512.21,496.3569 " fill="none" id="Engine-backto-CombustionEngine" style="stroke:#181818;stroke-width:1.0;"/><polygon fill="none" points="937.21,387.4869,918.5922,391.1443,924.5102,401.5835,937.21,387.4869" style="stroke:#181818;stroke-width:1.0;"/></g><!--reverse link Engine to ElectricMotor--><g id="link_Engine_ElectricMotor"><path codeLine="54" d="M937.4292,409.5164 C913.6292,434.3264 900.79,447.7169 881.24,468.0969 " fill="none" id="Engine-backto-ElectricMotor" style="stroke:#181818;stroke-width:1.0;"/><polygon fill="none" points="949.89,396.5269,933.0994,405.3629,941.7591,413.67,949.89,396.5269" style="stroke:#181818;stroke-width:1.0;"/></g><!--link CombustionEngine to FuelType--><g id="link_CombustionEngine_FuelType"><path codeLine="56" d="M430,541.5669 C430,562.5569 430,583.5369 430,607.2469 " fill="none" id="CombustionEngine-to-FuelType" style="stroke:#181818;stroke-width:1.0;"/><polygon fill="#181818" points="430,613.2469,434,604.2469,430,608.2469,426,604.2469,430,613.2469" style="stroke:#181818;stroke-width:1.0;"/></g><!--link Car to EnginePowered--><g id="link_Car_EnginePowered"><path codeLine="57" d="M169.92,347.3769 C181.42,375.8869 193.0159,404.664 206.9659,439.244 " fill="none" id="Car-to-EnginePowered" style="stroke:#181818;stroke-width:1.0;stroke-dasharray:7.0,7.0;"/><polygon fill="none" points="213.7,455.9369,212.5302,436.9993,201.4016,441.4887,213.7,455.9369" style="stroke:#181818;stroke-width:1.0;"/></g><!--link ElectricCar to EnginePowered--><g id="link_ElectricCar_EnginePowered"><path codeLine="58" d="M491.26,347.4469 C477.88,363.0169 459.74,382.2069 441,396.2969 C429.47,404.9669 382.8183,429.0242 329.2283,455.9142 " fill="none" id="ElectricCar-to-EnginePowered" style="stroke:#181818;stroke-width:1.0;stroke-dasharray:7.0,7.0;"/><polygon fill="none" points="313.14,463.9869,331.9191,461.277,326.5374,450.5515,313.14,463.9869" style="stroke:#181818;stroke-width:1.0;"/></g><!--link Airplane to EnginePowered--><g id="link_Airplane_EnginePowered"><path codeLine="59" d="M267.95,347.3769 C261.58,375.8869 255.3468,403.7904 247.6168,438.3704 " fill="none" id="Airplane-to-EnginePowered" style="stroke:#181818;stroke-width:1.0;stroke-dasharray:7.0,7.0;"/><polygon fill="none" points="243.69,455.9369,253.4723,439.6794,241.7613,437.0615,243.69,455.9369" style="stroke:#181818;stroke-width:1.0;"/></g><!--link Ship to EnginePowered--><g id="link_Ship_EnginePowered"><path codeLine="60" d="M371.58,347.4169 C361.68,362.2569 348.74,380.7469 336,396.2969 C319.29,416.6869 312.1144,425.0172 294.4044,443.1572 " fill="none" id="Ship-to-EnginePowered" style="stroke:#181818;stroke-width:1.0;stroke-dasharray:7.0,7.0;"/><polygon fill="none" points="281.83,456.0369,298.6976,447.3487,290.1111,438.9658,281.83,456.0369" style="stroke:#181818;stroke-width:1.0;"/></g><!--link Car to CombustionEngine--><g id="link_Car_CombustionEngine"><path codeLine="62" d="M172.97,347.5169 C182.12,363.3069 195.29,382.6969 211,396.2969 C217.12,401.5969 288.7384,436.3655 349.7384,465.5755 " fill="none" id="Car-to-CombustionEngine" style="stroke:#181818;stroke-width:1.0;"/><polygon fill="#181818" points="355.15,468.1669,348.7602,460.6722,350.6404,466.0074,345.3051,467.8876,355.15,468.1669" style="stroke:#181818;stroke-width:1.0;"/></g><!--link ElectricCar to ElectricMotor--><g id="link_ElectricCar_ElectricMotor"><path codeLine="63" d="M533.69,347.3369 C546.97,363.2469 565.36,382.8369 585,396.2969 C639.85,433.8969 704.1772,459.8717 758.0372,477.8017 " fill="none" id="ElectricCar-to-ElectricMotor" style="stroke:#181818;stroke-width:1.0;"/><polygon fill="#181818" points="763.73,479.6969,756.4542,473.0589,758.986,478.1176,753.9273,480.6494,763.73,479.6969" style="stroke:#181818;stroke-width:1.0;"/></g><!--link Airplane to CombustionEngine--><g id="link_Airplane_CombustionEngine"><path codeLine="64" d="M296.31,347.4969 C308.3,362.0369 323.38,380.2069 337,396.2969 C357.41,420.4069 376.7205,442.7513 394.8705,463.6013 " fill="none" id="Airplane-to-CombustionEngine" style="stroke:#181818;stroke-width:1.0;"/><polygon fill="#181818" points="398.81,468.1269,395.9178,458.7123,395.5271,464.3556,389.8837,463.9649,398.81,468.1269" style="stroke:#181818;stroke-width:1.0;"/></g><!--link Ship to CombustionEngine--><g id="link_Ship_CombustionEngine"><path codeLine="65" d="M395.05,347.3769 C402.2,379.3769 412.8118,426.8812 420.7118,462.2412 " fill="none" id="Ship-to-CombustionEngine" style="stroke:#181818;stroke-width:1.0;"/><polygon fill="#181818" points="422.02,468.0969,423.9614,458.4413,420.9298,463.2172,416.1539,460.1856,422.02,468.0969" style="stroke:#181818;stroke-width:1.0;"/></g><!--link Bicycle to GMN29--><g id="link_Bicycle_GMN29"><path d="M59.17,291.0269 C71.07,265.2269 92.62,228.6969 124.5,212.2969 C211.85,167.3669 471.62,186.8969 566.5,212.2969 C629.53,229.1669 693.32,273.1969 727.21,299.2169 " fill="none" id="Bicycle-GMN29" style="stroke:#181818;stroke-width:1.0;stroke-dasharray:7.0,7.0;"/></g><!--SRC=[RLJDJjj04BxlKymn4JKF4A58D3KqRMWZdAh7QcrlafMSNSlUq4Qb4WJrZCIfZu4A4GW4VONr6tLsapZ-EtdypSvyttnhZ-8gOg3_w5LseM-pY-otViok8LkQL_sINUf_-XNXfRw5biTen4BO0rVCPsr2k50i6TE08J3XWWtbTvRWWPy4O6yDmOIfTTHg6pHLDAa0CixVVn72i3KSpLaqMiJCTZe-z3uF-fzS3D_rNSyTOF317Nqx-c93T-3sHgVzdYccVgeI6YW88fgcC4geI6EPA3WuIAtsRjUsT60cGnPrm5C95nEB13Ic0LUB3k1OHfcHVa9_U35ZOQlTWL3E_OZPp4oUCGETIHvQmASf3_fYB0swQLhNix6a9YOslhqVRfaTIEP2O8iE-596Z0hBOQqhiHhlIW1FJzUL1YtMuYZ3DOd961fKjnRLapD_dYekHIvlp0MDSdNZpMLqyclP5RiH2t3Qu4GgcTGgVQhm0rby_3hDtTlHqiBvIhUct25FueWMvMqItfJ7DV0j3nP1L3nC2X_3kUCO_YfKeA-cjknLt91NiGqt8Li_BLt5vLAov28XjHjndExEUsFE_lvvj_pFaQ9t3UdSleQSTR01jrI6kow-G6OEb0V8kHfhBLjZXWYf62HyCbKWnxcF0Ff6h_Gpxg5B_OZxQANlGR_e5U2EMk6MUaRq8Rl25ROiJ_06Qytcqa-Wd-mZkxAL-aw_sW0hzBt-YmtkSFij3KrsZJie1AE5_0S0]--></g></svg>