<svg xmlns="http://www.w3.org/2000/svg" xmlns:xlink="http://www.w3.org/1999/xlink" contentStyleType="text/css" height="733px" preserveAspectRatio="none" style="width:1112px;height:733px;background:#FFFFFF;" version="1.1" viewBox="0 0 1112 733" width="1112px" zoomAndPan="magnify"><defs/><g><text fill="#000000" font-family="sans-serif" font-size="14" font-weight="bold" lengthAdjust="spacing" textLength="312.4092" x="393.1338" y="22.9951">&#1048;&#1077;&#1088;&#1072;&#1088;&#1093;&#1080;&#1103; &#1090;&#1088;&#1072;&#1085;&#1089;&#1087;&#1086;&#1088;&#1090;&#1072; (Sealed + Enum)</text><!--class EnginePowered--><g id="elem_EnginePowered"><rect codeLine="3" fill="#F1F1F1" height="96.8906" id="EnginePowered" rx="2.5" ry="2.5" style="stroke:#181818;stroke-width:0.5;" width="160.3262" x="558" y="456.2969"/><ellipse cx="582.0079" cy="472.2969" fill="#B4A7E5" rx="11" ry="11" style="stroke:#181818;stroke-width:1.0;"/><path d="M577.9298,468.0625 L577.9298,465.9063 L585.3204,465.9063 L585.3204,468.0625 L582.8517,468.0625 L582.8517,476.1406 L585.3204,476.1406 L585.3204,478.2969 L577.9298,478.2969 L577.9298,476.1406 L580.3985,476.1406 L580.3985,468.0625 L577.9298,468.0625 Z " fill="#000000"/><text fill="#000000" font-family="sans-serif" font-size="14" font-style="italic" lengthAdjust="spacing" textLength="108.3086" x="598.0097" y="477.1436">EnginePowered</text><line style="stroke:#181818;stroke-width:0.5;" x1="559" x2="717.3262" y1="488.2969" y2="488.2969"/><line style="stroke:#181818;stroke-width:0.5;" x1="559" x2="717.3262" y1="496.2969" y2="496.2969"/><ellipse cx="569" cy="509.9453" fill="#84BE84" rx="3" ry="3" style="stroke:#038048;stroke-width:1.0;"/><text fill="#000000" font-family="sans-serif" font-size="14" lengthAdjust="spacing" textLength="134.3262" x="578" y="513.292">Engine getEngine()</text><ellipse cx="569" cy="526.2422" fill="#84BE84" rx="3" ry="3" style="stroke:#038048;stroke-width:1.0;"/><text fill="#000000" font-family="sans-serif" font-size="14" lengthAdjust="spacing" textLength="91.5127" x="578" y="529.5889">startEngine()</text><ellipse cx="569" cy="542.5391" fill="#84BE84" rx="3" ry="3" style="stroke:#038048;stroke-width:1.0;"/><text fill="#000000" font-family="sans-serif" font-size="14" lengthAdjust="spacing" textLength="89.1406" x="578" y="545.8857">stopEngine()</text></g><!--class FuelType--><g id="elem_FuelType"><rect codeLine="9" fill="#F1F1F1" height="113.1875" id="FuelType" rx="2.5" ry="2.5" style="stroke:#181818;stroke-width:0.5;" width="95.7656" x="393" y="613.2969"/><ellipse cx="408" cy="629.2969" fill="#EB937F" rx="11" ry="11" style="stroke:#181818;stroke-width:1.0;"/><path d="M412.1094,635.2969 L404.3906,635.2969 L404.3906,622.9063 L412.1094,622.9063 L412.1094,625.0625 L406.8438,625.0625 L406.8438,627.7344 L411.6094,627.7344 L411.6094,629.8906 L406.8438,629.8906 L406.8438,633.1406 L412.1094,633.1406 L412.1094,635.2969 Z " fill="#000000"/><text fill="#000000" font-family="sans-serif" font-size="14" lengthAdjust="spacing" textLength="63.7656" x="422" y="634.1436">FuelType</text><line style="stroke:#181818;stroke-width:0.5;" x1="394" x2="487.7656" y1="645.2969" y2="645.2969"/><text fill="#000000" font-family="sans-serif" font-size="14" lengthAdjust="spacing" textLength="71.5791" x="399" y="662.292">GASOLINE</text><text fill="#000000" font-family="sans-serif" font-size="14" lengthAdjust="spacing" textLength="49.2871" x="399" y="678.5889">DIESEL</text><text fill="#000000" font-family="sans-serif" font-size="14" lengthAdjust="spacing" textLength="63.4717" x="399" y="694.8857">JET_FUEL</text><text fill="#000000" font-family="sans-serif" font-size="14" lengthAdjust="spacing" textLength="67.4502" x="399" y="711.1826">ELECTRIC</text><line style="stroke:#181818;stroke-width:0.5;" x1="394" x2="487.7656" y1="718.4844" y2="718.4844"/></g><!--class Transport--><g id="elem_Transport"><rect codeLine="16" fill="#F1F1F1" height="137.75" id="Transport" rx="2.5" ry="2.5" style="stroke:#181818;stroke-width:0.5;" width="189.625" x="510" y="44.2969"/><ellipse cx="566.687" cy="64.4297" fill="#A9DCDF" rx="11" ry="11" style="stroke:#181818;stroke-width:1.0;"/><path d="M566.7964,59.7734 L565.6401,64.8516 L567.9683,64.8516 L566.7964,59.7734 Z M565.312,57.5391 L568.2964,57.5391 L571.6558,69.9297 L569.2026,69.9297 L568.437,66.8672 L565.1558,66.8672 L564.4058,69.9297 L561.9683,69.9297 L565.312,57.5391 Z " fill="#000000"/><text fill="#000000" font-family="sans-serif" font-size="12" font-style="italic" lengthAdjust="spacing" textLength="54.1348" x="593.9951" y="60.4355">&#171;sealed&#187;</text><text fill="#000000" font-family="sans-serif" font-size="14" font-style="italic" lengthAdjust="spacing" textLength="67.751" x="587.187" y="76.2607">Transport</text><line style="stroke:#181818;stroke-width:0.5;" x1="511" x2="698.625" y1="84.5625" y2="84.5625"/><rect fill="none" height="6" style="stroke:#C82930;stroke-width:1.0;" width="6" x="518" y="95.2109"/><text fill="#000000" font-family="sans-serif" font-size="14" lengthAdjust="spacing" textLength="94.541" x="530" y="101.5576">model: String</text><rect fill="none" height="6" style="stroke:#C82930;stroke-width:1.0;" width="6" x="518" y="111.5078"/><text fill="#000000" font-family="sans-serif" font-size="14" lengthAdjust="spacing" textLength="86.5225" x="530" y="117.8545">capacity: int</text><line style="stroke:#181818;stroke-width:0.5;" x1="511" x2="698.625" y1="125.1563" y2="125.1563"/><ellipse cx="521" cy="138.8047" fill="#84BE84" rx="3" ry="3" style="stroke:#038048;stroke-width:1.0;"/><text fill="#000000" font-family="sans-serif" font-size="14" lengthAdjust="spacing" textLength="163.625" x="530" y="142.1514">getMaxSpeed(): double</text><ellipse cx="521" cy="155.1016" fill="#84BE84" rx="3" ry="3" style="stroke:#038048;stroke-width:1.0;"/><text fill="#000000" font-family="sans-serif" font-size="14" lengthAdjust="spacing" textLength="88.8193" x="530" y="158.4482">move(): void</text><ellipse cx="521" cy="171.3984" fill="#84BE84" rx="3" ry="3" style="stroke:#038048;stroke-width:1.0;"/><text fill="#000000" font-family="sans-serif" font-size="14" lengthAdjust="spacing" textLength="124.7148" x="530" y="174.7451">basicInfo(): String</text></g><!--class Engine--><g id="elem_Engine"><rect codeLine="24" fill="#F1F1F1" height="154.0469" id="Engine" rx="2.5" ry="2.5" style="stroke:#181818;stroke-width:0.5;" width="171.2432" x="674.5" y="242.2969"/><ellipse cx="730.8042" cy="262.4297" fill="#A9DCDF" rx="11" ry="11" style="stroke:#181818;stroke-width:1.0;"/><path d="M730.9136,257.7734 L729.7573,262.8516 L732.0854,262.8516 L730.9136,257.7734 Z M729.4292,255.5391 L732.4136,255.5391 L735.7729,267.9297 L733.3198,267.9297 L732.5542,264.8672 L729.2729,264.8672 L728.5229,267.9297 L726.0854,267.9297 L729.4292,255.5391 Z " fill="#000000"/><text fill="#000000" font-family="sans-serif" font-size="12" font-style="italic" lengthAdjust="spacing" textLength="54.1348" x="749.3042" y="258.4355">&#171;sealed&#187;</text><text fill="#000000" font-family="sans-serif" font-size="14" font-style="italic" lengthAdjust="spacing" textLength="47.9814" x="752.3809" y="274.2607">Engine</text><line style="stroke:#181818;stroke-width:0.5;" x1="675.5" x2="844.7432" y1="282.5625" y2="282.5625"/><rect fill="none" height="6" style="stroke:#C82930;stroke-width:1.0;" width="6" x="682.5" y="293.2109"/><text fill="#000000" font-family="sans-serif" font-size="14" lengthAdjust="spacing" textLength="89.6602" x="694.5" y="299.5576">powerHP: int</text><rect fill="none" height="6" style="stroke:#C82930;stroke-width:1.0;" width="6" x="682.5" y="309.5078"/><text fill="#000000" font-family="sans-serif" font-size="14" lengthAdjust="spacing" textLength="119.1641" x="694.5" y="315.8545">running: boolean</text><line style="stroke:#181818;stroke-width:0.5;" x1="675.5" x2="844.7432" y1="323.1563" y2="323.1563"/><ellipse cx="685.5" cy="336.8047" fill="#84BE84" rx="3" ry="3" style="stroke:#038048;stroke-width:1.0;"/><text fill="#000000" font-family="sans-serif" font-size="14" lengthAdjust="spacing" textLength="82.3252" x="694.5" y="340.1514">start(): void</text><ellipse cx="685.5" cy="353.1016" fill="#84BE84" rx="3" ry="3" style="stroke:#038048;stroke-width:1.0;"/><text fill="#000000" font-family="sans-serif" font-size="14" lengthAdjust="spacing" textLength="79.9531" x="694.5" y="356.4482">stop(): void</text><ellipse cx="685.5" cy="369.3984" fill="#84BE84" rx="3" ry="3" style="stroke:#038048;stroke-width:1.0;"/><text fill="#000000" font-family="sans-serif" font-size="14" lengthAdjust="spacing" textLength="145.2432" x="694.5" y="372.7451">isRunning(): boolean</text><ellipse cx="685.5" cy="385.6953" fill="#84BE84" rx="3" ry="3" style="stroke:#038048;stroke-width:1.0;"/><text fill="#000000" font-family="sans-serif" font-size="14" lengthAdjust="spacing" textLength="123.1289" x="694.5" y="389.042">getPowerHP(): int</text></g><!--class CombustionEngine--><g id="elem_CombustionEngine"><rect codeLine="33" fill="#F1F1F1" height="72.5625" id="CombustionEngine" rx="2.5" ry="2.5" style="stroke:#181818;stroke-width:0.5;" width="163.8311" x="359" y="468.2969"/><ellipse cx="374" cy="488.4297" fill="#ADD1B2" rx="11" ry="11" style="stroke:#181818;stroke-width:1.0;"/><path d="M376.9688,494.0703 Q376.3906,494.3672 375.75,494.5078 Q375.1094,494.6641 374.4063,494.6641 Q371.9063,494.6641 370.5781,493.0234 Q369.2656,491.3672 369.2656,488.2422 Q369.2656,485.1172 370.5781,483.4609 Q371.9063,481.8047 374.4063,481.8047 Q375.1094,481.8047 375.75,481.9609 Q376.4063,482.1172 376.9688,482.4141 L376.9688,485.1328 Q376.3438,484.5547 375.75,484.2891 Q375.1563,484.0078 374.5313,484.0078 Q373.1875,484.0078 372.5,485.0859 Q371.8125,486.1484 371.8125,488.2422 Q371.8125,490.3359 372.5,491.4141 Q373.1875,492.4766 374.5313,492.4766 Q375.1563,492.4766 375.75,492.2109 Q376.3438,491.9297 376.9688,491.3516 L376.9688,494.0703 Z " fill="#000000"/><text fill="#000000" font-family="sans-serif" font-size="12" font-style="italic" lengthAdjust="spacing" textLength="40.6641" x="433.5835" y="484.4355">&#171;final&#187;</text><text fill="#000000" font-family="sans-serif" font-size="14" lengthAdjust="spacing" textLength="131.8311" x="388" y="500.2607">CombustionEngine</text><line style="stroke:#181818;stroke-width:0.5;" x1="360" x2="521.8311" y1="508.5625" y2="508.5625"/><rect fill="none" height="6" style="stroke:#C82930;stroke-width:1.0;" width="6" x="367" y="519.2109"/><text fill="#000000" font-family="sans-serif" font-size="14" lengthAdjust="spacing" textLength="133.5742" x="379" y="525.5576">fuelType: FuelType</text><line style="stroke:#181818;stroke-width:0.5;" x1="360" x2="521.8311" y1="532.8594" y2="532.8594"/></g><!--class ElectricMotor--><g id="elem_ElectricMotor"><rect codeLine="37" fill="#F1F1F1" height="72.5625" id="ElectricMotor" rx="2.5" ry="2.5" style="stroke:#181818;stroke-width:0.5;" width="165.877" x="819" y="468.2969"/><ellipse cx="852.6948" cy="488.4297" fill="#ADD1B2" rx="11" ry="11" style="stroke:#181818;stroke-width:1.0;"/><path d="M855.6635,494.0703 Q855.0854,494.3672 854.4448,494.5078 Q853.8042,494.6641 853.101,494.6641 Q850.601,494.6641 849.2729,493.0234 Q847.9604,491.3672 847.9604,488.2422 Q847.9604,485.1172 849.2729,483.4609 Q850.601,481.8047 853.101,481.8047 Q853.8042,481.8047 854.4448,481.9609 Q855.101,482.1172 855.6635,482.4141 L855.6635,485.1328 Q855.0385,484.5547 854.4448,484.2891 Q853.851,484.0078 853.226,484.0078 Q851.8823,484.0078 851.1948,485.0859 Q850.5073,486.1484 850.5073,488.2422 Q850.5073,490.3359 851.1948,491.4141 Q851.8823,492.4766 853.226,492.4766 Q853.851,492.4766 854.4448,492.2109 Q855.0385,491.9297 855.6635,491.3516 L855.6635,494.0703 Z " fill="#000000"/><text fill="#000000" font-family="sans-serif" font-size="12" font-style="italic" lengthAdjust="spacing" textLength="40.6641" x="896.6836" y="484.4355">&#171;final&#187;</text><text fill="#000000" font-family="sans-serif" font-size="14" lengthAdjust="spacing" textLength="92.333" x="870.8492" y="500.2607">ElectricMotor</text><line style="stroke:#181818;stroke-width:0.5;" x1="820" x2="983.877" y1="508.5625" y2="508.5625"/><rect fill="none" height="6" style="stroke:#C82930;stroke-width:1.0;" width="6" x="827" y="519.2109"/><text fill="#000000" font-family="sans-serif" font-size="14" lengthAdjust="spacing" textLength="139.877" x="839" y="525.5576">batteryKWh: double</text><line style="stroke:#181818;stroke-width:0.5;" x1="820" x2="983.877" y1="532.8594" y2="532.8594"/></g><!--class Car--><g id="elem_Car"><rect codeLine="41" fill="#F1F1F1" height="56.2656" id="Car" rx="2.5" ry="2.5" style="stroke:#181818;stroke-width:0.5;" width="68.6641" x="570.5" y="291.2969"/><ellipse cx="585.5" cy="311.4297" fill="#ADD1B2" rx="11" ry="11" style="stroke:#181818;stroke-width:1.0;"/><path d="M588.4688,317.0703 Q587.8906,317.3672 587.25,317.5078 Q586.6094,317.6641 585.9063,317.6641 Q583.4063,317.6641 582.0781,316.0234 Q580.7656,314.3672 580.7656,311.2422 Q580.7656,308.1172 582.0781,306.4609 Q583.4063,304.8047 585.9063,304.8047 Q586.6094,304.8047 587.25,304.9609 Q587.9063,305.1172 588.4688,305.4141 L588.4688,308.1328 Q587.8438,307.5547 587.25,307.2891 Q586.6563,307.0078 586.0313,307.0078 Q584.6875,307.0078 584,308.0859 Q583.3125,309.1484 583.3125,311.2422 Q583.3125,313.3359 584,314.4141 Q584.6875,315.4766 586.0313,315.4766 Q586.6563,315.4766 587.25,315.2109 Q587.8438,314.9297 588.4688,314.3516 L588.4688,317.0703 Z " fill="#000000"/><text fill="#000000" font-family="sans-serif" font-size="12" font-style="italic" lengthAdjust="spacing" textLength="40.6641" x="597.5" y="307.4355">&#171;final&#187;</text><text fill="#000000" font-family="sans-serif" font-size="14" lengthAdjust="spacing" textLength="24.1104" x="605.7769" y="323.2607">Car</text><line style="stroke:#181818;stroke-width:0.5;" x1="571.5" x2="638.1641" y1="331.5625" y2="331.5625"/><line style="stroke:#181818;stroke-width:0.5;" x1="571.5" x2="638.1641" y1="339.5625" y2="339.5625"/></g><!--class ElectricCar--><g id="elem_ElectricCar"><rect codeLine="42" fill="#F1F1F1" height="56.2656" id="ElectricCar" rx="2.5" ry="2.5" style="stroke:#181818;stroke-width:0.5;" width="107.9883" x="881" y="291.2969"/><ellipse cx="896" cy="311.4297" fill="#ADD1B2" rx="11" ry="11" style="stroke:#181818;stroke-width:1.0;"/><path d="M898.9688,317.0703 Q898.3906,317.3672 897.75,317.5078 Q897.1094,317.6641 896.4063,317.6641 Q893.9063,317.6641 892.5781,316.0234 Q891.2656,314.3672 891.2656,311.2422 Q891.2656,308.1172 892.5781,306.4609 Q893.9063,304.8047 896.4063,304.8047 Q897.1094,304.8047 897.75,304.9609 Q898.4063,305.1172 898.9688,305.4141 L898.9688,308.1328 Q898.3438,307.5547 897.75,307.2891 Q897.1563,307.0078 896.5313,307.0078 Q895.1875,307.0078 894.5,308.0859 Q893.8125,309.1484 893.8125,311.2422 Q893.8125,313.3359 894.5,314.4141 Q895.1875,315.4766 896.5313,315.4766 Q897.1563,315.4766 897.75,315.2109 Q898.3438,314.9297 898.9688,314.3516 L898.9688,317.0703 Z " fill="#000000"/><text fill="#000000" font-family="sans-serif" font-size="12" font-style="italic" lengthAdjust="spacing" textLength="40.6641" x="927.6621" y="307.4355">&#171;final&#187;</text><text fill="#000000" font-family="sans-serif" font-size="14" lengthAdjust="spacing" textLength="75.9883" x="910" y="323.2607">ElectricCar</text><line style="stroke:#181818;stroke-width:0.5;" x1="882" x2="987.9883" y1="331.5625" y2="331.5625"/><line style="stroke:#181818;stroke-width:0.5;" x1="882" x2="987.9883" y1="339.5625" y2="339.5625"/></g><!--class Airplane--><g id="elem_Airplane"><rect codeLine="43" fill="#F1F1F1" height="56.2656" id="Airplane" rx="2.5" ry="2.5" style="stroke:#181818;stroke-width:0.5;" width="90.0645" x="445" y="291.2969"/><ellipse cx="460" cy="311.4297" fill="#ADD1B2" rx="11" ry="11" style="stroke:#181818;stroke-width:1.0;"/><path d="M462.9688,317.0703 Q462.3906,317.3672 461.75,317.5078 Q461.1094,317.6641 460.4063,317.6641 Q457.9063,317.6641 456.5781,316.0234 Q455.2656,314.3672 455.2656,311.2422 Q455.2656,308.1172 456.5781,306.4609 Q457.9063,304.8047 460.4063,304.8047 Q461.1094,304.8047 461.75,304.9609 Q462.4063,305.1172 462.9688,305.4141 L462.9688,308.1328 Q462.3438,307.5547 461.75,307.2891 Q461.1563,307.0078 460.5313,307.0078 Q459.1875,307.0078 458.5,308.0859 Q457.8125,309.1484 457.8125,311.2422 Q457.8125,313.3359 458.5,314.4141 Q459.1875,315.4766 460.5313,315.4766 Q461.1563,315.4766 461.75,315.2109 Q462.3438,314.9297 462.9688,314.3516 L462.9688,317.0703 Z " fill="#000000"/><text fill="#000000" font-family="sans-serif" font-size="12" font-style="italic" lengthAdjust="spacing" textLength="40.6641" x="482.7002" y="307.4355">&#171;final&#187;</text><text fill="#000000" font-family="sans-serif" font-size="14" lengthAdjust="spacing" textLength="58.0645" x="474" y="323.2607">Airplane</text><line style="stroke:#181818;stroke-width:0.5;" x1="446" x2="534.0645" y1="331.5625" y2="331.5625"/><line style="stroke:#181818;stroke-width:0.5;" x1="446" x2="534.0645" y1="339.5625" y2="339.5625"/></g><!--class Ship--><g id="elem_Ship"><rect codeLine="44" fill="#F1F1F1" height="56.2656" id="Ship" rx="2.5" ry="2.5" style="stroke:#181818;stroke-width:0.5;" width="68.6641" x="340.5" y="291.2969"/><ellipse cx="355.5" cy="311.4297" fill="#ADD1B2" rx="11" ry="11" style="stroke:#181818;stroke-width:1.0;"/><path d="M358.4688,317.0703 Q357.8906,317.3672 357.25,317.5078 Q356.6094,317.6641 355.9063,317.6641 Q353.4063,317.6641 352.0781,316.0234 Q350.7656,314.3672 350.7656,311.2422 Q350.7656,308.1172 352.0781,306.4609 Q353.4063,304.8047 355.9063,304.8047 Q356.6094,304.8047 357.25,304.9609 Q357.9063,305.1172 358.4688,305.4141 L358.4688,308.1328 Q357.8438,307.5547 357.25,307.2891 Q356.6563,307.0078 356.0313,307.0078 Q354.6875,307.0078 354,308.0859 Q353.3125,309.1484 353.3125,311.2422 Q353.3125,313.3359 354,314.4141 Q354.6875,315.4766 356.0313,315.4766 Q356.6563,315.4766 357.25,315.2109 Q357.8438,314.9297 358.4688,314.3516 L358.4688,317.0703 Z " fill="#000000"/><text fill="#000000" font-family="sans-serif" font-size="12" font-style="italic" lengthAdjust="spacing" textLength="40.6641" x="367.5" y="307.4355">&#171;final&#187;</text><text fill="#000000" font-family="sans-serif" font-size="14" lengthAdjust="spacing" textLength="30.5361" x="372.564" y="323.2607">Ship</text><line style="stroke:#181818;stroke-width:0.5;" x1="341.5" x2="408.1641" y1="331.5625" y2="331.5625"/><line style="stroke:#181818;stroke-width:0.5;" x1="341.5" x2="408.1641" y1="339.5625" y2="339.5625"/></g><!--class Bicycle--><g id="elem_Bicycle"><rect codeLine="45" fill="#F1F1F1" height="56.2656" id="Bicycle" rx="2.5" ry="2.5" style="stroke:#181818;stroke-width:0.5;" width="81.6768" x="1024" y="291.2969"/><ellipse cx="1039" cy="311.4297" fill="#ADD1B2" rx="11" ry="11" style="stroke:#181818;stroke-width:1.0;"/><path d="M1041.9688,317.0703 Q1041.3906,317.3672 1040.75,317.5078 Q1040.1094,317.6641 1039.4063,317.6641 Q1036.9063,317.6641 1035.5781,316.0234 Q1034.2656,314.3672 1034.2656,311.2422 Q1034.2656,308.1172 1035.5781,306.4609 Q1036.9063,304.8047 1039.4063,304.8047 Q1040.1094,304.8047 1040.75,304.9609 Q1041.4063,305.1172 1041.9688,305.4141 L1041.9688,308.1328 Q1041.3438,307.5547 1040.75,307.2891 Q1040.1563,307.0078 1039.5313,307.0078 Q1038.1875,307.0078 1037.5,308.0859 Q1036.8125,309.1484 1036.8125,311.2422 Q1036.8125,313.3359 1037.5,314.4141 Q1038.1875,315.4766 1039.5313,315.4766 Q1040.1563,315.4766 1040.75,315.2109 Q1041.3438,314.9297 1041.9688,314.3516 L1041.9688,317.0703 Z " fill="#000000"/><text fill="#000000" font-family="sans-serif" font-size="12" font-style="italic" lengthAdjust="spacing" textLength="40.6641" x="1057.5063" y="307.4355">&#171;final&#187;</text><text fill="#000000" font-family="sans-serif" font-size="14" lengthAdjust="spacing" textLength="49.6768" x="1053" y="323.2607">Bicycle</text><line style="stroke:#181818;stroke-width:0.5;" x1="1025" x2="1104.6768" y1="331.5625" y2="331.5625"/><line style="stroke:#181818;stroke-width:0.5;" x1="1025" x2="1104.6768" y1="339.5625" y2="339.5625"/></g><g id="elem_GMN29"><path d="M6,299.2969 L6,339.5625 L306.0112,339.5625 L306.0112,309.2969 L296.0112,299.2969 L6,299.2969 " fill="#FEFFDD" style="stroke:#181818;stroke-width:0.5;"/><path d="M296.0112,299.2969 L296.0112,309.2969 L306.0112,309.2969 L296.0112,299.2969 " fill="#FEFFDD" style="stroke:#181818;stroke-width:1.0;"/><text fill="#000000" font-family="sans-serif" font-size="13" lengthAdjust="spacing" textLength="279.0112" x="12" y="316.3638">&#1042;&#1077;&#1083;&#1086;&#1089;&#1080;&#1087;&#1077;&#1076; &#1085;&#1077; &#1088;&#1077;&#1072;&#1083;&#1080;&#1079;&#1091;&#1077;&#1090; EnginePowered,</text><text fill="#000000" font-family="sans-serif" font-size="13" lengthAdjust="spacing" textLength="202.3633" x="12" y="331.4966">&#1090;&#1072;&#1082; &#1082;&#1072;&#1082; &#1091; &#1085;&#1077;&#1075;&#1086; &#1085;&#1077;&#1090; &#1076;&#1074;&#1080;&#1075;&#1072;&#1090;&#1077;&#1083;&#1103;</text></g><!--reverse link Transport to Car--><g id="link_Transport_Car"><path codeLine="47" d="M605,200.5069 C605,237.6869 605,263.6269 605,291.2269 " fill="none" id="Transport-backto-Car" style="stroke:#181818;stroke-width:1.0;"/><polygon fill="none" points="605,182.5069,599,200.5069,611,200.5069,605,182.5069" style="stroke:#181818;stroke-width:1.0;"/></g><!--reverse link Transport to ElectricCar--><g id="link_Transport_ElectricCar"><path codeLine="48" d="M716.7531,159.1619 C767.5231,181.5219 813.14,205.4469 863,242.2969 C881.86,256.2369 899.99,275.4169 913.34,291.0269 " fill="none" id="Transport-backto-ElectricCar" style="stroke:#181818;stroke-width:1.0;"/><polygon fill="none" points="700.28,151.9069,714.3348,164.653,719.1715,153.6709,700.28,151.9069" style="stroke:#181818;stroke-width:1.0;"/></g><!--reverse link Transport to Airplane--><g id="link_Transport_Airplane"><path codeLine="49" d="M557.7105,198.1869 C536.7505,235.3669 520.82,263.6269 505.26,291.2269 " fill="none" id="Transport-backto-Airplane" style="stroke:#181818;stroke-width:1.0;"/><polygon fill="none" points="566.55,182.5069,552.4838,195.2404,562.9372,201.1334,566.55,182.5069" style="stroke:#181818;stroke-width:1.0;"/></g><!--reverse link Transport to Ship--><g id="link_Transport_Ship"><path codeLine="50" d="M494.8628,184.1247 C466.6328,204.0447 451.47,217.2469 427,242.2969 C412.7,256.9369 399.7,275.9369 390.28,291.2769 " fill="none" id="Transport-backto-Ship" style="stroke:#181818;stroke-width:1.0;"/><polygon fill="none" points="509.57,173.7469,491.4036,179.2223,498.3221,189.0271,509.57,173.7469" style="stroke:#181818;stroke-width:1.0;"/></g><!--reverse link Transport to Bicycle--><g id="link_Transport_Bicycle"><path codeLine="51" d="M717.7001,131.0889 C804.0901,147.0589 914.18,176.9269 1007,242.2969 C1024.91,254.9169 1039.77,274.7269 1049.97,290.9569 " fill="none" id="Transport-backto-Bicycle" style="stroke:#181818;stroke-width:1.0;"/><polygon fill="none" points="700,127.8169,716.6094,136.9889,718.7908,125.1889,700,127.8169" style="stroke:#181818;stroke-width:1.0;"/></g><!--reverse link Engine to CombustionEngine--><g id="link_Engine_CombustionEngine"><path codeLine="53" d="M659.5231,395.0715 C653.6731,398.9715 662.78,392.7569 657,396.2969 C643.55,404.5169 571.26,440.2269 513.97,468.2569 " fill="none" id="Engine-backto-CombustionEngine" style="stroke:#181818;stroke-width:1.0;"/><polygon fill="none" points="674.5,385.0869,656.1949,390.0792,662.8513,400.0638,674.5,385.0869" style="stroke:#181818;stroke-width:1.0;"/></g><!--reverse link Engine to ElectricMotor--><g id="link_Engine_ElectricMotor"><path codeLine="54" d="M830.0063,410.7621 C849.2063,435.5721 858.6,447.7169 874.38,468.0969 " fill="none" id="Engine-backto-ElectricMotor" style="stroke:#181818;stroke-width:1.0;"/><polygon fill="none" points="818.99,396.5269,825.2613,414.4342,834.7514,407.0899,818.99,396.5269" style="stroke:#181818;stroke-width:1.0;"/></g><!--link CombustionEngine to FuelType--><g id="link_CombustionEngine_FuelType"><path codeLine="56" d="M441,541.5669 C441,562.5569 441,583.5369 441,607.2469 " fill="none" id="CombustionEngine-to-FuelType" style="stroke:#181818;stroke-width:1.0;"/><polygon fill="#181818" points="441,613.2469,445,604.2469,441,608.2469,437,604.2469,441,613.2469" style="stroke:#181818;stroke-width:1.0;"/></g><!--link Car to EnginePowered--><g id="link_Car_EnginePowered"><path codeLine="57" d="M609.87,347.3769 C615,375.8869 619.9834,403.6412 626.2034,438.2212 " fill="none" id="Car-to-EnginePowered" style="stroke:#181818;stroke-width:1.0;stroke-dasharray:7.0,7.0;"/><polygon fill="none" points="629.39,455.9369,632.1087,437.159,620.2982,439.2834,629.39,455.9369" style="stroke:#181818;stroke-width:1.0;"/></g><!--link ElectricCar to EnginePowered--><g id="link_ElectricCar_EnginePowered"><path codeLine="58" d="M913.73,347.3069 C900.37,363.0169 882.11,382.3969 863,396.2969 C818.63,428.5869 779.6521,448.3159 734.8321,467.0159 " fill="none" id="ElectricCar-to-EnginePowered" style="stroke:#181818;stroke-width:1.0;stroke-dasharray:7.0,7.0;"/><polygon fill="none" points="718.22,473.9469,737.1424,472.5533,732.5218,461.4785,718.22,473.9469" style="stroke:#181818;stroke-width:1.0;"/></g><!--link Airplane to EnginePowered--><g id="link_Airplane_EnginePowered"><path codeLine="59" d="M511.84,347.3769 C534.83,375.8869 560.2097,407.346 588.0997,441.926 " fill="none" id="Airplane-to-EnginePowered" style="stroke:#181818;stroke-width:1.0;stroke-dasharray:7.0,7.0;"/><polygon fill="none" points="599.4,455.9369,592.77,438.1593,583.4295,445.6928,599.4,455.9369" style="stroke:#181818;stroke-width:1.0;"/></g><!--link Ship to EnginePowered--><g id="link_Ship_EnginePowered"><path codeLine="60" d="M389.04,347.4369 C398.22,363.1969 411.39,382.5769 427,396.2969 C432.64,401.2469 484.3602,427.4873 541.6202,456.0273 " fill="none" id="Ship-to-EnginePowered" style="stroke:#181818;stroke-width:1.0;stroke-dasharray:7.0,7.0;"/><polygon fill="none" points="557.73,464.0569,544.2967,450.6574,538.9437,461.3972,557.73,464.0569" style="stroke:#181818;stroke-width:1.0;"/></g><!--link Car to CombustionEngine--><g id="link_Car_CombustionEngine"><path codeLine="62" d="M587.81,347.6069 C577.97,362.5069 565.03,380.9869 552,396.2969 C530.26,421.8369 507.7053,443.9942 485.7953,464.1542 " fill="none" id="Car-to-CombustionEngine" style="stroke:#181818;stroke-width:1.0;"/><polygon fill="#181818" points="481.38,468.2169,490.7114,465.0664,485.0594,464.8313,485.2945,459.1794,481.38,468.2169" style="stroke:#181818;stroke-width:1.0;"/></g><!--link ElectricCar to ElectricMotor--><g id="link_ElectricCar_ElectricMotor"><path codeLine="63" d="M930.13,347.3769 C924.38,379.3769 915.8421,426.8316 909.4821,462.1916 " fill="none" id="ElectricCar-to-ElectricMotor" style="stroke:#181818;stroke-width:1.0;"/><polygon fill="#181818" points="908.42,468.0969,913.95,459.9471,909.3051,463.1758,906.0764,458.5309,908.42,468.0969" style="stroke:#181818;stroke-width:1.0;"/></g><!--link Airplane to CombustionEngine--><g id="link_Airplane_CombustionEngine"><path codeLine="64" d="M482.77,347.3769 C474.22,379.3769 461.5291,426.9403 452.0791,462.3003 " fill="none" id="Airplane-to-CombustionEngine" style="stroke:#181818;stroke-width:1.0;"/><polygon fill="#181818" points="450.53,468.0969,456.7181,460.4348,451.8209,463.2664,448.9893,458.3693,450.53,468.0969" style="stroke:#181818;stroke-width:1.0;"/></g><!--link Ship to CombustionEngine--><g id="link_Ship_CombustionEngine"><path codeLine="65" d="M384.74,347.3769 C396.25,379.3769 413.409,427.0911 426.129,462.4511 " fill="none" id="Ship-to-CombustionEngine" style="stroke:#181818;stroke-width:1.0;"/><polygon fill="#181818" points="428.16,468.0969,428.8774,458.2742,426.4675,463.392,421.3497,460.9821,428.16,468.0969" style="stroke:#181818;stroke-width:1.0;"/></g><!--link GMN29 to Bicycle--><g id="link_GMN29_Bicycle"><path d="M180.64,299.2169 C214.32,273.1969 277.75,229.1769 340.5,212.2969 C410.14,193.5669 925.48,179.1169 989.5,212.2969 C1021.19,228.7169 1042.41,265.2469 1054.08,291.0369 " fill="none" id="GMN29-Bicycle" style="stroke:#181818;stroke-width:1.0;stroke-dasharray:7.0,7.0;"/></g><!--SRC=[RLJDJjj04BxlKymn4JKF4A58D3Ljsj16E5MFrTfUXvKsNilUq4Qb4WJrZCIfZu4AKH48-WhhD-hi9d7yT_BucvtvlldM7iMLOA1_wrL-eM_pY_oNViYl8L-QL_sSN-f_-WNXfRw5ZiUeO27iWHlFPrr2UAnO6j608J3bCHlBRop50py8mDuQWYbJwwZJDMYcQ5e3P5Ay_oI4OMiucZCnMIJCTdfxw7qQ3J-w6BuPkfuxmk2zE_bwzDc6xiWTJ4w60rDC_KobD50G29fbC4bfd2KoLN1ma5dj_RvjwS1CXapqm5CfZwSM2MX20wuMFS2nZ38Z_PX-znB6mawt1w6S-uBPp4oUCGETIHvQmASP3uPn90swQThKix6a8IOnlhqRRvaTIETnZ2rwu4if68qjXxMkmcgygm0yErbN6hHSYwECroGcOsXGtLhKGCxyUQQuZ0jv4O-fADH5cyle5TUoAtO52t3Qu5WgcJOgVQhm0rby-79QkBUZfQNpjMvjkKEU9eAMvMqItYbF6k1h7Ym2KJvCIX_3kUCO_ZfKeg-djknrt93NiGqt8Li_BLtDvKgouY8XZHjndFxEUsFE_lvvl_hFaR9tBUd2lfQSTR05jrI6koc-H6OEL0Sek5fhBLjhXiHICH0iKY2ZmaO0VQDN-WdNqAL-m7MqqlUWd_KAS4MjS4az8Vetly8DjgmEy0fhpUBIZw0VxIE_ifNwJh_O02lqlVw33Uvm-IqDJNwDAoW48uNy1m00]--></g></svg>