<svg xmlns="http://www.w3.org/2000/svg" xmlns:xlink="http://www.w3.org/1999/xlink" contentStyleType="text/css" height="733px" preserveAspectRatio="none" style="width:986px;height:733px;background:#FFFFFF;" version="1.1" viewBox="0 0 986 733" width="986px" zoomAndPan="magnify"><defs/><g><text fill="#000000" font-family="sans-serif" font-size="14" font-weight="bold" lengthAdjust="spacing" textLength="312.4092" x="330.167" y="22.9951">&#1048;&#1077;&#1088;&#1072;&#1088;&#1093;&#1080;&#1103; &#1090;&#1088;&#1072;&#1085;&#1089;&#1087;&#1086;&#1088;&#1090;&#1072; (Sealed + Enum)</text><!--class EnginePowered--><g id="elem_EnginePowered"><rect codeLine="3" fill="#F1F1F1" height="96.8906" id="EnginePowered" rx="2.5" ry="2.5" style="stroke:#181818;stroke-width:0.5;" width="160.3262" x="7" y="456.2969"/><ellipse cx="31.0079" cy="472.2969" fill="#B4A7E5" rx="11" ry="11" style="stroke:#181818;stroke-width:1.0;"/><path d="M26.9298,468.0625 L26.9298,465.9063 L34.3204,465.9063 L34.3204,468.0625 L31.8517,468.0625 L31.8517,476.1406 L34.3204,476.1406 L34.3204,478.2969 L26.9298,478.2969 L26.9298,476.1406 L29.3985,476.1406 L29.3985,468.0625 L26.9298,468.0625 Z " fill="#000000"/><text fill="#000000" font-family="sans-serif" font-size="14" font-style="italic" lengthAdjust="spacing" textLength="108.3086" x="47.0097" y="477.1436">EnginePowered</text><line style="stroke:#181818;stroke-width:0.5;" x1="8" x2="166.3262" y1="488.2969" y2="488.2969"/><line style="stroke:#181818;stroke-width:0.5;" x1="8" x2="166.3262" y1="496.2969" y2="496.2969"/><ellipse cx="18" cy="509.9453" fill="#84BE84" rx="3" ry="3" style="stroke:#038048;stroke-width:1.0;"/><text fill="#000000" font-family="sans-serif" font-size="14" lengthAdjust="spacing" textLength="134.3262" x="27" y="513.292">Engine getEngine()</text><ellipse cx="18" cy="526.2422" fill="#84BE84" rx="3" ry="3" style="stroke:#038048;stroke-width:1.0;"/><text fill="#000000" font-family="sans-serif" font-size="14" lengthAdjust="spacing" textLength="91.5127" x="27" y="529.5889">startEngine()</text><ellipse cx="18" cy="542.5391" fill="#84BE84" rx="3" ry="3" style="stroke:#038048;stroke-width:1.0;"/><text fill="#000000" font-family="sans-serif" font-size="14" lengthAdjust="spacing" textLength="89.1406" x="27" y="545.8857">stopEngine()</text></g><!--class FuelType--><g id="elem_FuelType"><rect codeLine="9" fill="#F1F1F1" height="113.1875" id="FuelType" rx="2.5" ry="2.5" style="stroke:#181818;stroke-width:0.5;" width="95.7656" x="238" y="613.2969"/><ellipse cx="253" cy="629.2969" fill="#EB937F" rx="11" ry="11" style="stroke:#181818;stroke-width:1.0;"/><path d="M257.1094,635.2969 L249.3906,635.2969 L249.3906,622.9063 L257.1094,622.9063 L257.1094,625.0625 L251.8438,625.0625 L251.8438,627.7344 L256.6094,627.7344 L256.6094,629.8906 L251.8438,629.8906 L251.8438,633.1406 L257.1094,633.1406 L257.1094,635.2969 Z " fill="#000000"/><text fill="#000000" font-family="sans-serif" font-size="14" lengthAdjust="spacing" textLength="63.7656" x="267" y="634.1436">FuelType</text><line style="stroke:#181818;stroke-width:0.5;" x1="239" x2="332.7656" y1="645.2969" y2="645.2969"/><text fill="#000000" font-family="sans-serif" font-size="14" lengthAdjust="spacing" textLength="71.5791" x="244" y="662.292">GASOLINE</text><text fill="#000000" font-family="sans-serif" font-size="14" lengthAdjust="spacing" textLength="49.2871" x="244" y="678.5889">DIESEL</text><text fill="#000000" font-family="sans-serif" font-size="14" lengthAdjust="spacing" textLength="63.4717" x="244" y="694.8857">JET_FUEL</text><text fill="#000000" font-family="sans-serif" font-size="14" lengthAdjust="spacing" textLength="67.4502" x="244" y="711.1826">ELECTRIC</text><line style="stroke:#181818;stroke-width:0.5;" x1="239" x2="332.7656" y1="718.4844" y2="718.4844"/></g><!--class Transport--><g id="elem_Transport"><rect codeLine="16" fill="#F1F1F1" height="137.75" id="Transport" rx="2.5" ry="2.5" style="stroke:#181818;stroke-width:0.5;" width="189.625" x="139" y="44.2969"/><ellipse cx="195.687" cy="64.4297" fill="#A9DCDF" rx="11" ry="11" style="stroke:#181818;stroke-width:1.0;"/><path d="M195.7964,59.7734 L194.6401,64.8516 L196.9683,64.8516 L195.7964,59.7734 Z M194.312,57.5391 L197.2964,57.5391 L200.6558,69.9297 L198.2026,69.9297 L197.437,66.8672 L194.1558,66.8672 L193.4058,69.9297 L190.9683,69.9297 L194.312,57.5391 Z " fill="#000000"/><text fill="#000000" font-family="sans-serif" font-size="12" font-style="italic" lengthAdjust="spacing" textLength="54.1348" x="222.9951" y="60.4355">&#171;sealed&#187;</text><text fill="#000000" font-family="sans-serif" font-size="14" font-style="italic" lengthAdjust="spacing" textLength="67.751" x="216.187" y="76.2607">Transport</text><line style="stroke:#181818;stroke-width:0.5;" x1="140" x2="327.625" y1="84.5625" y2="84.5625"/><rect fill="none" height="6" style="stroke:#C82930;stroke-width:1.0;" width="6" x="147" y="95.2109"/><text fill="#000000" font-family="sans-serif" font-size="14" lengthAdjust="spacing" textLength="94.541" x="159" y="101.5576">model: String</text><rect fill="none" height="6" style="stroke:#C82930;stroke-width:1.0;" width="6" x="147" y="111.5078"/><text fill="#000000" font-family="sans-serif" font-size="14" lengthAdjust="spacing" textLength="86.5225" x="159" y="117.8545">capacity: int</text><line style="stroke:#181818;stroke-width:0.5;" x1="140" x2="327.625" y1="125.1563" y2="125.1563"/><ellipse cx="150" cy="138.8047" fill="#84BE84" rx="3" ry="3" style="stroke:#038048;stroke-width:1.0;"/><text fill="#000000" font-family="sans-serif" font-size="14" lengthAdjust="spacing" textLength="163.625" x="159" y="142.1514">getMaxSpeed(): double</text><ellipse cx="150" cy="155.1016" fill="#84BE84" rx="3" ry="3" style="stroke:#038048;stroke-width:1.0;"/><text fill="#000000" font-family="sans-serif" font-size="14" lengthAdjust="spacing" textLength="88.8193" x="159" y="158.4482">move(): void</text><ellipse cx="150" cy="171.3984" fill="#84BE84" rx="3" ry="3" style="stroke:#038048;stroke-width:1.0;"/><text fill="#000000" font-family="sans-serif" font-size="14" lengthAdjust="spacing" textLength="124.7148" x="159" y="174.7451">basicInfo(): String</text></g><!--class Engine--><g id="elem_Engine"><rect codeLine="24" fill="#F1F1F1" height="154.0469" id="Engine" rx="2.5" ry="2.5" style="stroke:#181818;stroke-width:0.5;" width="171.2432" x="808.5" y="242.2969"/><ellipse cx="864.8042" cy="262.4297" fill="#A9DCDF" rx="11" ry="11" style="stroke:#181818;stroke-width:1.0;"/><path d="M864.9136,257.7734 L863.7573,262.8516 L866.0854,262.8516 L864.9136,257.7734 Z M863.4292,255.5391 L866.4136,255.5391 L869.7729,267.9297 L867.3198,267.9297 L866.5542,264.8672 L863.2729,264.8672 L862.5229,267.9297 L860.0854,267.9297 L863.4292,255.5391 Z " fill="#000000"/><text fill="#000000" font-family="sans-serif" font-size="12" font-style="italic" lengthAdjust="spacing" textLength="54.1348" x="883.3042" y="258.4355">&#171;sealed&#187;</text><text fill="#000000" font-family="sans-serif" font-size="14" font-style="italic" lengthAdjust="spacing" textLength="47.9814" x="886.3809" y="274.2607">Engine</text><line style="stroke:#181818;stroke-width:0.5;" x1="809.5" x2="978.7432" y1="282.5625" y2="282.5625"/><rect fill="none" height="6" style="stroke:#C82930;stroke-width:1.0;" width="6" x="816.5" y="293.2109"/><text fill="#000000" font-family="sans-serif" font-size="14" lengthAdjust="spacing" textLength="89.6602" x="828.5" y="299.5576">powerHP: int</text><rect fill="none" height="6" style="stroke:#C82930;stroke-width:1.0;" width="6" x="816.5" y="309.5078"/><text fill="#000000" font-family="sans-serif" font-size="14" lengthAdjust="spacing" textLength="119.1641" x="828.5" y="315.8545">running: boolean</text><line style="stroke:#181818;stroke-width:0.5;" x1="809.5" x2="978.7432" y1="323.1563" y2="323.1563"/><ellipse cx="819.5" cy="336.8047" fill="#84BE84" rx="3" ry="3" style="stroke:#038048;stroke-width:1.0;"/><text fill="#000000" font-family="sans-serif" font-size="14" lengthAdjust="spacing" textLength="82.3252" x="828.5" y="340.1514">start(): void</text><ellipse cx="819.5" cy="353.1016" fill="#84BE84" rx="3" ry="3" style="stroke:#038048;stroke-width:1.0;"/><text fill="#000000" font-family="sans-serif" font-size="14" lengthAdjust="spacing" textLength="79.9531" x="828.5" y="356.4482">stop(): void</text><ellipse cx="819.5" cy="369.3984" fill="#84BE84" rx="3" ry="3" style="stroke:#038048;stroke-width:1.0;"/><text fill="#000000" font-family="sans-serif" font-size="14" lengthAdjust="spacing" textLength="145.2432" x="828.5" y="372.7451">isRunning(): boolean</text><ellipse cx="819.5" cy="385.6953" fill="#84BE84" rx="3" ry="3" style="stroke:#038048;stroke-width:1.0;"/><text fill="#000000" font-family="sans-serif" font-size="14" lengthAdjust="spacing" textLength="123.1289" x="828.5" y="389.042">getPowerHP(): int</text></g><!--class CombustionEngine--><g id="elem_CombustionEngine"><rect codeLine="33" fill="#F1F1F1" height="88.8594" id="CombustionEngine" rx="2.5" ry="2.5" style="stroke:#181818;stroke-width:0.5;" width="167.3193" x="202.5" y="460.2969"/><ellipse cx="219.0697" cy="480.4297" fill="#ADD1B2" rx="11" ry="11" style="stroke:#181818;stroke-width:1.0;"/><path d="M222.0385,486.0703 Q221.4604,486.3672 220.8197,486.5078 Q220.1791,486.6641 219.476,486.6641 Q216.976,486.6641 215.6479,485.0234 Q214.3354,483.3672 214.3354,480.2422 Q214.3354,477.1172 215.6479,475.4609 Q216.976,473.8047 219.476,473.8047 Q220.1791,473.8047 220.8197,473.9609 Q221.476,474.1172 222.0385,474.4141 L222.0385,477.1328 Q221.4135,476.5547 220.8197,476.2891 Q220.226,476.0078 219.601,476.0078 Q218.2572,476.0078 217.5697,477.0859 Q216.8822,478.1484 216.8822,480.2422 Q216.8822,482.3359 217.5697,483.4141 Q218.2572,484.4766 219.601,484.4766 Q220.226,484.4766 220.8197,484.2109 Q221.4135,483.9297 222.0385,483.3516 L222.0385,486.0703 Z " fill="#000000"/><text fill="#000000" font-family="sans-serif" font-size="12" font-style="italic" lengthAdjust="spacing" textLength="40.6641" x="279.0021" y="476.4355">&#171;final&#187;</text><text fill="#000000" font-family="sans-serif" font-size="14" lengthAdjust="spacing" textLength="131.8311" x="233.4186" y="492.2607">CombustionEngine</text><line style="stroke:#181818;stroke-width:0.5;" x1="203.5" x2="368.8193" y1="500.5625" y2="500.5625"/><rect fill="none" height="6" style="stroke:#C82930;stroke-width:1.0;" width="6" x="210.5" y="511.2109"/><text fill="#000000" font-family="sans-serif" font-size="14" lengthAdjust="spacing" textLength="133.5742" x="222.5" y="517.5576">fuelType: FuelType</text><rect fill="none" height="6" style="stroke:#C82930;stroke-width:1.0;" width="6" x="210.5" y="527.5078"/><text fill="#000000" font-family="sans-serif" font-size="14" lengthAdjust="spacing" textLength="141.3193" x="222.5" y="533.8545">displacementCC: int</text><line style="stroke:#181818;stroke-width:0.5;" x1="203.5" x2="368.8193" y1="541.1563" y2="541.1563"/></g><!--class ElectricMotor--><g id="elem_ElectricMotor"><rect codeLine="38" fill="#F1F1F1" height="72.5625" id="ElectricMotor" rx="2.5" ry="2.5" style="stroke:#181818;stroke-width:0.5;" width="165.877" x="811" y="468.2969"/><ellipse cx="844.6948" cy="488.4297" fill="#ADD1B2" rx="11" ry="11" style="stroke:#181818;stroke-width:1.0;"/><path d="M847.6635,494.0703 Q847.0854,494.3672 846.4448,494.5078 Q845.8042,494.6641 845.101,494.6641 Q842.601,494.6641 841.2729,493.0234 Q839.9604,491.3672 839.9604,488.2422 Q839.9604,485.1172 841.2729,483.4609 Q842.601,481.8047 845.101,481.8047 Q845.8042,481.8047 846.4448,481.9609 Q847.101,482.1172 847.6635,482.4141 L847.6635,485.1328 Q847.0385,484.5547 846.4448,484.2891 Q845.851,484.0078 845.226,484.0078 Q843.8823,484.0078 843.1948,485.0859 Q842.5073,486.1484 842.5073,488.2422 Q842.5073,490.3359 843.1948,491.4141 Q843.8823,492.4766 845.226,492.4766 Q845.851,492.4766 846.4448,492.2109 Q847.0385,491.9297 847.6635,491.3516 L847.6635,494.0703 Z " fill="#000000"/><text fill="#000000" font-family="sans-serif" font-size="12" font-style="italic" lengthAdjust="spacing" textLength="40.6641" x="888.6836" y="484.4355">&#171;final&#187;</text><text fill="#000000" font-family="sans-serif" font-size="14" lengthAdjust="spacing" textLength="92.333" x="862.8492" y="500.2607">ElectricMotor</text><line style="stroke:#181818;stroke-width:0.5;" x1="812" x2="975.877" y1="508.5625" y2="508.5625"/><rect fill="none" height="6" style="stroke:#C82930;stroke-width:1.0;" width="6" x="819" y="519.2109"/><text fill="#000000" font-family="sans-serif" font-size="14" lengthAdjust="spacing" textLength="139.877" x="831" y="525.5576">batteryKWh: double</text><line style="stroke:#181818;stroke-width:0.5;" x1="812" x2="975.877" y1="532.8594" y2="532.8594"/></g><!--class Car--><g id="elem_Car"><rect codeLine="42" fill="#F1F1F1" height="56.2656" id="Car" rx="2.5" ry="2.5" style="stroke:#181818;stroke-width:0.5;" width="68.6641" x="251.5" y="291.2969"/><ellipse cx="266.5" cy="311.4297" fill="#ADD1B2" rx="11" ry="11" style="stroke:#181818;stroke-width:1.0;"/><path d="M269.4688,317.0703 Q268.8906,317.3672 268.25,317.5078 Q267.6094,317.6641 266.9063,317.6641 Q264.4063,317.6641 263.0781,316.0234 Q261.7656,314.3672 261.7656,311.2422 Q261.7656,308.1172 263.0781,306.4609 Q264.4063,304.8047 266.9063,304.8047 Q267.6094,304.8047 268.25,304.9609 Q268.9063,305.1172 269.4688,305.4141 L269.4688,308.1328 Q268.8438,307.5547 268.25,307.2891 Q267.6563,307.0078 267.0313,307.0078 Q265.6875,307.0078 265,308.0859 Q264.3125,309.1484 264.3125,311.2422 Q264.3125,313.3359 265,314.4141 Q265.6875,315.4766 267.0313,315.4766 Q267.6563,315.4766 268.25,315.2109 Q268.8438,314.9297 269.4688,314.3516 L269.4688,317.0703 Z " fill="#000000"/><text fill="#000000" font-family="sans-serif" font-size="12" font-style="italic" lengthAdjust="spacing" textLength="40.6641" x="278.5" y="307.4355">&#171;final&#187;</text><text fill="#000000" font-family="sans-serif" font-size="14" lengthAdjust="spacing" textLength="24.1104" x="286.7769" y="323.2607">Car</text><line style="stroke:#181818;stroke-width:0.5;" x1="252.5" x2="319.1641" y1="331.5625" y2="331.5625"/><line style="stroke:#181818;stroke-width:0.5;" x1="252.5" x2="319.1641" y1="339.5625" y2="339.5625"/></g><!--class Airplane--><g id="elem_Airplane"><rect codeLine="43" fill="#F1F1F1" height="56.2656" id="Airplane" rx="2.5" ry="2.5" style="stroke:#181818;stroke-width:0.5;" width="90.0645" x="22" y="291.2969"/><ellipse cx="37" cy="311.4297" fill="#ADD1B2" rx="11" ry="11" style="stroke:#181818;stroke-width:1.0;"/><path d="M39.9688,317.0703 Q39.3906,317.3672 38.75,317.5078 Q38.1094,317.6641 37.4063,317.6641 Q34.9063,317.6641 33.5781,316.0234 Q32.2656,314.3672 32.2656,311.2422 Q32.2656,308.1172 33.5781,306.4609 Q34.9063,304.8047 37.4063,304.8047 Q38.1094,304.8047 38.75,304.9609 Q39.4063,305.1172 39.9688,305.4141 L39.9688,308.1328 Q39.3438,307.5547 38.75,307.2891 Q38.1563,307.0078 37.5313,307.0078 Q36.1875,307.0078 35.5,308.0859 Q34.8125,309.1484 34.8125,311.2422 Q34.8125,313.3359 35.5,314.4141 Q36.1875,315.4766 37.5313,315.4766 Q38.1563,315.4766 38.75,315.2109 Q39.3438,314.9297 39.9688,314.3516 L39.9688,317.0703 Z " fill="#000000"/><text fill="#000000" font-family="sans-serif" font-size="12" font-style="italic" lengthAdjust="spacing" textLength="40.6641" x="59.7002" y="307.4355">&#171;final&#187;</text><text fill="#000000" font-family="sans-serif" font-size="14" lengthAdjust="spacing" textLength="58.0645" x="51" y="323.2607">Airplane</text><line style="stroke:#181818;stroke-width:0.5;" x1="23" x2="111.0645" y1="331.5625" y2="331.5625"/><line style="stroke:#181818;stroke-width:0.5;" x1="23" x2="111.0645" y1="339.5625" y2="339.5625"/></g><!--class Ship--><g id="elem_Ship"><rect codeLine="44" fill="#F1F1F1" height="56.2656" id="Ship" rx="2.5" ry="2.5" style="stroke:#181818;stroke-width:0.5;" width="68.6641" x="147.5" y="291.2969"/><ellipse cx="162.5" cy="311.4297" fill="#ADD1B2" rx="11" ry="11" style="stroke:#181818;stroke-width:1.0;"/><path d="M165.4688,317.0703 Q164.8906,317.3672 164.25,317.5078 Q163.6094,317.6641 162.9063,317.6641 Q160.4063,317.6641 159.0781,316.0234 Q157.7656,314.3672 157.7656,311.2422 Q157.7656,308.1172 159.0781,306.4609 Q160.4063,304.8047 162.9063,304.8047 Q163.6094,304.8047 164.25,304.9609 Q164.9063,305.1172 165.4688,305.4141 L165.4688,308.1328 Q164.8438,307.5547 164.25,307.2891 Q163.6563,307.0078 163.0313,307.0078 Q161.6875,307.0078 161,308.0859 Q160.3125,309.1484 160.3125,311.2422 Q160.3125,313.3359 161,314.4141 Q161.6875,315.4766 163.0313,315.4766 Q163.6563,315.4766 164.25,315.2109 Q164.8438,314.9297 165.4688,314.3516 L165.4688,317.0703 Z " fill="#000000"/><text fill="#000000" font-family="sans-serif" font-size="12" font-style="italic" lengthAdjust="spacing" textLength="40.6641" x="174.5" y="307.4355">&#171;final&#187;</text><text fill="#000000" font-family="sans-serif" font-size="14" lengthAdjust="spacing" textLength="30.5361" x="179.564" y="323.2607">Ship</text><line style="stroke:#181818;stroke-width:0.5;" x1="148.5" x2="215.1641" y1="331.5625" y2="331.5625"/><line style="stroke:#181818;stroke-width:0.5;" x1="148.5" x2="215.1641" y1="339.5625" y2="339.5625"/></g><!--class Bicycle--><g id="elem_Bicycle"><rect codeLine="45" fill="#F1F1F1" height="56.2656" id="Bicycle" rx="2.5" ry="2.5" style="stroke:#181818;stroke-width:0.5;" width="81.6768" x="356" y="291.2969"/><ellipse cx="371" cy="311.4297" fill="#ADD1B2" rx="11" ry="11" style="stroke:#181818;stroke-width:1.0;"/><path d="M373.9688,317.0703 Q373.3906,317.3672 372.75,317.5078 Q372.1094,317.6641 371.4063,317.6641 Q368.9063,317.6641 367.5781,316.0234 Q366.2656,314.3672 366.2656,311.2422 Q366.2656,308.1172 367.5781,306.4609 Q368.9063,304.8047 371.4063,304.8047 Q372.1094,304.8047 372.75,304.9609 Q373.4063,305.1172 373.9688,305.4141 L373.9688,308.1328 Q373.3438,307.5547 372.75,307.2891 Q372.1563,307.0078 371.5313,307.0078 Q370.1875,307.0078 369.5,308.0859 Q368.8125,309.1484 368.8125,311.2422 Q368.8125,313.3359 369.5,314.4141 Q370.1875,315.4766 371.5313,315.4766 Q372.1563,315.4766 372.75,315.2109 Q373.3438,314.9297 373.9688,314.3516 L373.9688,317.0703 Z " fill="#000000"/><text fill="#000000" font-family="sans-serif" font-size="12" font-style="italic" lengthAdjust="spacing" textLength="40.6641" x="389.5063" y="307.4355">&#171;final&#187;</text><text fill="#000000" font-family="sans-serif" font-size="14" lengthAdjust="spacing" textLength="49.6768" x="385" y="323.2607">Bicycle</text><line style="stroke:#181818;stroke-width:0.5;" x1="357" x2="436.6768" y1="331.5625" y2="331.5625"/><line style="stroke:#181818;stroke-width:0.5;" x1="357" x2="436.6768" y1="339.5625" y2="339.5625"/></g><g id="elem_GMN25"><path d="M473,299.2969 L473,315.2969 L438.05,319.2969 L473,323.2969 L473,339.5625 A0,0 0 0 0 473,339.5625 L773.0112,339.5625 A0,0 0 0 0 773.0112,339.5625 L773.0112,309.2969 L763.0112,299.2969 L473,299.2969 A0,0 0 0 0 473,299.2969 " fill="#FEFFDD" style="stroke:#181818;stroke-width:0.5;"/><path d="M763.0112,299.2969 L763.0112,309.2969 L773.0112,309.2969 L763.0112,299.2969 " fill="#FEFFDD" style="stroke:#181818;stroke-width:0.5;"/><text fill="#000000" font-family="sans-serif" font-size="13" lengthAdjust="spacing" textLength="279.0112" x="479" y="316.3638">&#1042;&#1077;&#1083;&#1086;&#1089;&#1080;&#1087;&#1077;&#1076; &#1085;&#1077; &#1088;&#1077;&#1072;&#1083;&#1080;&#1079;&#1091;&#1077;&#1090; EnginePowered,</text><text fill="#000000" font-family="sans-serif" font-size="13" lengthAdjust="spacing" textLength="202.3633" x="479" y="331.4966">&#1090;&#1072;&#1082; &#1082;&#1072;&#1082; &#1091; &#1085;&#1077;&#1075;&#1086; &#1085;&#1077;&#1090; &#1076;&#1074;&#1080;&#1075;&#1072;&#1090;&#1077;&#1083;&#1103;</text></g><!--reverse link Transport to Car--><g id="link_Transport_Car"><path codeLine="47" d="M255.8373,199.9488 C265.3173,237.1288 272.06,263.6269 279.1,291.2269 " fill="none" id="Transport-backto-Car" style="stroke:#181818;stroke-width:1.0;"/><polygon fill="none" points="251.39,182.5069,250.0233,201.4313,261.6513,198.4664,251.39,182.5069" style="stroke:#181818;stroke-width:1.0;"/></g><!--reverse link Transport to Airplane--><g id="link_Transport_Airplane"><path codeLine="48" d="M166.7572,196.4344 C136.3172,233.6144 111.76,263.6269 89.16,291.2269 " fill="none" id="Transport-backto-Airplane" style="stroke:#181818;stroke-width:1.0;"/><polygon fill="none" points="178.16,182.5069,162.1147,192.6335,171.3998,200.2354,178.16,182.5069" style="stroke:#181818;stroke-width:1.0;"/></g><!--reverse link Transport to Ship--><g id="link_Transport_Ship"><path codeLine="49" d="M212.1627,199.9488 C202.6827,237.1288 195.94,263.6269 188.9,291.2269 " fill="none" id="Transport-backto-Ship" style="stroke:#181818;stroke-width:1.0;"/><polygon fill="none" points="216.61,182.5069,206.3487,198.4664,217.9767,201.4313,216.61,182.5069" style="stroke:#181818;stroke-width:1.0;"/></g><!--reverse link Transport to Bicycle--><g id="link_Transport_Bicycle"><path codeLine="50" d="M301.2256,196.4629 C316.8856,215.7229 322.51,222.7869 338,242.2969 C350.78,258.3869 364.9,276.5569 376.12,291.0969 " fill="none" id="Transport-backto-Bicycle" style="stroke:#181818;stroke-width:1.0;"/><polygon fill="none" points="289.87,182.4969,296.5702,200.2481,305.8809,192.6777,289.87,182.4969" style="stroke:#181818;stroke-width:1.0;"/></g><!--reverse link Engine to CombustionEngine--><g id="link_Engine_CombustionEngine"><path codeLine="52" d="M792.5527,396.3712 C786.8627,399.5812 796.78,393.6969 791,396.2969 C651.21,459.1769 472.85,486.0169 369.82,496.9069 " fill="none" id="Engine-backto-CombustionEngine" style="stroke:#181818;stroke-width:1.0;"/><polygon fill="none" points="808.23,387.5269,789.6046,391.1454,795.5008,401.597,808.23,387.5269" style="stroke:#181818;stroke-width:1.0;"/></g><!--reverse link Engine to ElectricMotor--><g id="link_Engine_ElectricMotor"><path codeLine="53" d="M894,414.5269 C894,439.3369 894,447.7169 894,468.0969 " fill="none" id="Engine-backto-ElectricMotor" style="stroke:#181818;stroke-width:1.0;"/><polygon fill="none" points="894,396.5269,888,414.5269,900,414.5269,894,396.5269" style="stroke:#181818;stroke-width:1.0;"/></g><!--link CombustionEngine to FuelType--><g id="link_CombustionEngine_FuelType"><path codeLine="55" d="M286,549.4769 C286,568.9969 286,586.2369 286,606.9969 " fill="none" id="CombustionEngine-to-FuelType" style="stroke:#181818;stroke-width:1.0;"/><polygon fill="#181818" points="286,612.9969,290,603.9969,286,607.9969,282,603.9969,286,612.9969" style="stroke:#181818;stroke-width:1.0;"/></g><!--link Car to EnginePowered--><g id="link_Car_EnginePowered"><path codeLine="56" d="M270.46,347.6369 C261.04,362.8969 248.13,381.7169 234,396.2969 C212.77,418.2069 201.3286,428.4587 177.0386,445.6987 " fill="none" id="Car-to-EnginePowered" style="stroke:#181818;stroke-width:1.0;stroke-dasharray:7.0,7.0;"/><polygon fill="none" points="162.36,456.1169,180.5113,450.5915,173.5658,440.8058,162.36,456.1169" style="stroke:#181818;stroke-width:1.0;"/></g><!--link Airplane to EnginePowered--><g id="link_Airplane_EnginePowered"><path codeLine="57" d="M69.95,347.3769 C73.06,375.8869 76.0592,403.4629 79.8292,438.0429 " fill="none" id="Airplane-to-EnginePowered" style="stroke:#181818;stroke-width:1.0;stroke-dasharray:7.0,7.0;"/><polygon fill="none" points="81.78,455.9369,85.7938,437.3926,73.8645,438.6932,81.78,455.9369" style="stroke:#181818;stroke-width:1.0;"/></g><!--link Ship to EnginePowered--><g id="link_Ship_EnginePowered"><path codeLine="58" d="M167.98,347.3769 C153.22,375.8869 137.9546,405.3716 120.0546,439.9516 " fill="none" id="Ship-to-EnginePowered" style="stroke:#181818;stroke-width:1.0;stroke-dasharray:7.0,7.0;"/><polygon fill="none" points="111.78,455.9369,125.3831,442.7098,114.7262,437.1933,111.78,455.9369" style="stroke:#181818;stroke-width:1.0;"/></g><!--link Car to CombustionEngine--><g id="link_Car_CombustionEngine"><path codeLine="60" d="M286,347.3769 C286,377.0869 286,419.1969 286,454.2269 " fill="none" id="Car-to-CombustionEngine" style="stroke:#181818;stroke-width:1.0;"/><polygon fill="#181818" points="286,460.2269,290,451.2269,286,455.2269,282,451.2269,286,460.2269" style="stroke:#181818;stroke-width:1.0;"/></g><!--link Airplane to CombustionEngine--><g id="link_Airplane_CombustionEngine"><path codeLine="61" d="M86.64,347.5469 C98.31,362.7869 113.94,381.6069 130,396.2969 C155.48,419.6069 181.2932,438.5806 208.7932,456.7406 " fill="none" id="Airplane-to-CombustionEngine" style="stroke:#181818;stroke-width:1.0;"/><polygon fill="#181818" points="213.8,460.0469,208.494,451.7495,209.6277,457.2916,204.0856,458.4253,213.8,460.0469" style="stroke:#181818;stroke-width:1.0;"/></g><!--link Ship to CombustionEngine--><g id="link_Ship_CombustionEngine"><path codeLine="62" d="M197.35,347.3769 C214.18,377.0869 238.4908,419.9774 258.3508,455.0074 " fill="none" id="Ship-to-CombustionEngine" style="stroke:#181818;stroke-width:1.0;"/><polygon fill="#181818" points="261.31,460.2269,260.3509,450.4248,258.844,455.8773,253.3916,454.3704,261.31,460.2269" style="stroke:#181818;stroke-width:1.0;"/></g><!--SRC=[RLJHJjim57ttLzp7LYnyG8KgiIvitSfMaKvxd9p4RIsvTfIuRDMO14LxHk9fdu46rH08zWlE7-tQJKEJzAatv_gUStASNisrO61-crL-Rcxoy_oNkS-l85_QH_EKNvX_vXdXfRc1Li2eO37iWI_dipOXN6gMZcd449XmoORg6qlnm0y2iBU6OCBqkcgrBPffcjO0bPJFFmbXI0r7SoP6YuGvfhU7mQT1_wEFvPk-7_W3BDxxewz7drtf3_pUwAJViyCqp7HA8msHe5a6evJAB56fXeE3p7dlTXsb1pCLCz61GATSJXmIqOH6N2ywWAzbdLdhn_Hxa30MjzeTYDKy5CnrPkgKMUXKyTW18Srur9TZPT62jEcdYAHX9h6vlHjkb3r8vr8YHGT2fGIZqccuw2ggDhiAmBEJzQH5jsVnLOPh4TknCkXkRQgdPk4yqrp9qjwOIofAT-FYCZhbjJWuvbaYyEvdJEfUhqRg2nPX2j6nqYfjC8PKuuUp-F1bMgRwOeTkdI-mGvwYrBQreX5CUT80N_De4OdjmsJhGpZpFAjHXpOITTmgrB52W91DO8wp5cEbMOc3a4RadjTz2TSciBz_rgt-gKWPmewUos47xhWiUSDToRQpw_XsTeXKca7A9rCDQbn60M2kpSeyugwuCFUuCrRc3ioJMG7kaHLkaaT4_-QNk6QMLO-lSDPk5_C0vi7zv9TkqjoQPrVWXBapVv3W5ZVKqihaLxWdOh1Uo7y0]--></g></svg>