<svg xmlns="http://www.w3.org/2000/svg" xmlns:xlink="http://www.w3.org/1999/xlink" contentStyleType="text/css" height="733px" preserveAspectRatio="none" style="width:779px;height:733px;background:#FFFFFF;" version="1.1" viewBox="0 0 779 733" width="779px" zoomAndPan="magnify"><defs/><g><text fill="#000000" font-family="sans-serif" font-size="14" font-weight="bold" lengthAdjust="spacing" textLength="312.4092" x="226.5396" y="22.9951">&#1048;&#1077;&#1088;&#1072;&#1088;&#1093;&#1080;&#1103; &#1090;&#1088;&#1072;&#1085;&#1089;&#1087;&#1086;&#1088;&#1090;&#1072; (Sealed + Enum)</text><!--class EnginePowered--><g id="elem_EnginePowered"><rect codeLine="3" fill="#F1F1F1" height="96.8906" id="EnginePowered" rx="2.5" ry="2.5" style="stroke:#181818;stroke-width:0.5;" width="160.3262" x="341.5" y="456.2969"/><ellipse cx="365.5079" cy="472.2969" fill="#B4A7E5" rx="11" ry="11" style="stroke:#181818;stroke-width:1.0;"/><path d="M361.4298,468.0625 L361.4298,465.9063 L368.8204,465.9063 L368.8204,468.0625 L366.3517,468.0625 L366.3517,476.1406 L368.8204,476.1406 L368.8204,478.2969 L361.4298,478.2969 L361.4298,476.1406 L363.8985,476.1406 L363.8985,468.0625 L361.4298,468.0625 Z " fill="#000000"/><text fill="#000000" font-family="sans-serif" font-size="14" font-style="italic" lengthAdjust="spacing" textLength="108.3086" x="381.5097" y="477.1436">EnginePowered</text><line style="stroke:#181818;stroke-width:0.5;" x1="342.5" x2="500.8262" y1="488.2969" y2="488.2969"/><line style="stroke:#181818;stroke-width:0.5;" x1="342.5" x2="500.8262" y1="496.2969" y2="496.2969"/><ellipse cx="352.5" cy="509.9453" fill="#84BE84" rx="3" ry="3" style="stroke:#038048;stroke-width:1.0;"/><text fill="#000000" font-family="sans-serif" font-size="14" lengthAdjust="spacing" textLength="134.3262" x="361.5" y="513.292">Engine getEngine()</text><ellipse cx="352.5" cy="526.2422" fill="#84BE84" rx="3" ry="3" style="stroke:#038048;stroke-width:1.0;"/><text fill="#000000" font-family="sans-serif" font-size="14" lengthAdjust="spacing" textLength="91.5127" x="361.5" y="529.5889">startEngine()</text><ellipse cx="352.5" cy="542.5391" fill="#84BE84" rx="3" ry="3" style="stroke:#038048;stroke-width:1.0;"/><text fill="#000000" font-family="sans-serif" font-size="14" lengthAdjust="spacing" textLength="89.1406" x="361.5" y="545.8857">stopEngine()</text></g><!--class FuelType--><g id="elem_FuelType"><rect codeLine="9" fill="#F1F1F1" height="113.1875" id="FuelType" rx="2.5" ry="2.5" style="stroke:#181818;stroke-width:0.5;" width="95.7656" x="176.5" y="613.2969"/><ellipse cx="191.5" cy="629.2969" fill="#EB937F" rx="11" ry="11" style="stroke:#181818;stroke-width:1.0;"/><path d="M195.6094,635.2969 L187.8906,635.2969 L187.8906,622.9063 L195.6094,622.9063 L195.6094,625.0625 L190.3438,625.0625 L190.3438,627.7344 L195.1094,627.7344 L195.1094,629.8906 L190.3438,629.8906 L190.3438,633.1406 L195.6094,633.1406 L195.6094,635.2969 Z " fill="#000000"/><text fill="#000000" font-family="sans-serif" font-size="14" lengthAdjust="spacing" textLength="63.7656" x="205.5" y="634.1436">FuelType</text><line style="stroke:#181818;stroke-width:0.5;" x1="177.5" x2="271.2656" y1="645.2969" y2="645.2969"/><text fill="#000000" font-family="sans-serif" font-size="14" lengthAdjust="spacing" textLength="71.5791" x="182.5" y="662.292">GASOLINE</text><text fill="#000000" font-family="sans-serif" font-size="14" lengthAdjust="spacing" textLength="49.2871" x="182.5" y="678.5889">DIESEL</text><text fill="#000000" font-family="sans-serif" font-size="14" lengthAdjust="spacing" textLength="63.4717" x="182.5" y="694.8857">JET_FUEL</text><text fill="#000000" font-family="sans-serif" font-size="14" lengthAdjust="spacing" textLength="67.4502" x="182.5" y="711.1826">ELECTRIC</text><line style="stroke:#181818;stroke-width:0.5;" x1="177.5" x2="271.2656" y1="718.4844" y2="718.4844"/></g><!--class Transport--><g id="elem_Transport"><rect codeLine="16" fill="#F1F1F1" height="137.75" id="Transport" rx="2.5" ry="2.5" style="stroke:#181818;stroke-width:0.5;" width="189.625" x="178.5" y="44.2969"/><ellipse cx="235.187" cy="64.4297" fill="#A9DCDF" rx="11" ry="11" style="stroke:#181818;stroke-width:1.0;"/><path d="M235.2964,59.7734 L234.1401,64.8516 L236.4683,64.8516 L235.2964,59.7734 Z M233.812,57.5391 L236.7964,57.5391 L240.1558,69.9297 L237.7026,69.9297 L236.937,66.8672 L233.6558,66.8672 L232.9058,69.9297 L230.4683,69.9297 L233.812,57.5391 Z " fill="#000000"/><text fill="#000000" font-family="sans-serif" font-size="12" font-style="italic" lengthAdjust="spacing" textLength="54.1348" x="262.4951" y="60.4355">&#171;sealed&#187;</text><text fill="#000000" font-family="sans-serif" font-size="14" font-style="italic" lengthAdjust="spacing" textLength="67.751" x="255.687" y="76.2607">Transport</text><line style="stroke:#181818;stroke-width:0.5;" x1="179.5" x2="367.125" y1="84.5625" y2="84.5625"/><rect fill="none" height="6" style="stroke:#C82930;stroke-width:1.0;" width="6" x="186.5" y="95.2109"/><text fill="#000000" font-family="sans-serif" font-size="14" lengthAdjust="spacing" textLength="94.541" x="198.5" y="101.5576">model: String</text><rect fill="none" height="6" style="stroke:#C82930;stroke-width:1.0;" width="6" x="186.5" y="111.5078"/><text fill="#000000" font-family="sans-serif" font-size="14" lengthAdjust="spacing" textLength="86.5225" x="198.5" y="117.8545">capacity: int</text><line style="stroke:#181818;stroke-width:0.5;" x1="179.5" x2="367.125" y1="125.1563" y2="125.1563"/><ellipse cx="189.5" cy="138.8047" fill="#84BE84" rx="3" ry="3" style="stroke:#038048;stroke-width:1.0;"/><text fill="#000000" font-family="sans-serif" font-size="14" lengthAdjust="spacing" textLength="163.625" x="198.5" y="142.1514">getMaxSpeed(): double</text><ellipse cx="189.5" cy="155.1016" fill="#84BE84" rx="3" ry="3" style="stroke:#038048;stroke-width:1.0;"/><text fill="#000000" font-family="sans-serif" font-size="14" lengthAdjust="spacing" textLength="88.8193" x="198.5" y="158.4482">move(): void</text><ellipse cx="189.5" cy="171.3984" fill="#84BE84" rx="3" ry="3" style="stroke:#038048;stroke-width:1.0;"/><text fill="#000000" font-family="sans-serif" font-size="14" lengthAdjust="spacing" textLength="124.7148" x="198.5" y="174.7451">basicInfo(): String</text></g><!--class Engine--><g id="elem_Engine"><rect codeLine="24" fill="#F1F1F1" height="154.0469" id="Engine" rx="2.5" ry="2.5" style="stroke:#181818;stroke-width:0.5;" width="171.2432" x="458" y="242.2969"/><ellipse cx="514.3042" cy="262.4297" fill="#A9DCDF" rx="11" ry="11" style="stroke:#181818;stroke-width:1.0;"/><path d="M514.4136,257.7734 L513.2573,262.8516 L515.5854,262.8516 L514.4136,257.7734 Z M512.9292,255.5391 L515.9136,255.5391 L519.2729,267.9297 L516.8198,267.9297 L516.0542,264.8672 L512.7729,264.8672 L512.0229,267.9297 L509.5854,267.9297 L512.9292,255.5391 Z " fill="#000000"/><text fill="#000000" font-family="sans-serif" font-size="12" font-style="italic" lengthAdjust="spacing" textLength="54.1348" x="532.8042" y="258.4355">&#171;sealed&#187;</text><text fill="#000000" font-family="sans-serif" font-size="14" font-style="italic" lengthAdjust="spacing" textLength="47.9814" x="535.8809" y="274.2607">Engine</text><line style="stroke:#181818;stroke-width:0.5;" x1="459" x2="628.2432" y1="282.5625" y2="282.5625"/><rect fill="none" height="6" style="stroke:#C82930;stroke-width:1.0;" width="6" x="466" y="293.2109"/><text fill="#000000" font-family="sans-serif" font-size="14" lengthAdjust="spacing" textLength="89.6602" x="478" y="299.5576">powerHP: int</text><rect fill="none" height="6" style="stroke:#C82930;stroke-width:1.0;" width="6" x="466" y="309.5078"/><text fill="#000000" font-family="sans-serif" font-size="14" lengthAdjust="spacing" textLength="119.1641" x="478" y="315.8545">running: boolean</text><line style="stroke:#181818;stroke-width:0.5;" x1="459" x2="628.2432" y1="323.1563" y2="323.1563"/><ellipse cx="469" cy="336.8047" fill="#84BE84" rx="3" ry="3" style="stroke:#038048;stroke-width:1.0;"/><text fill="#000000" font-family="sans-serif" font-size="14" lengthAdjust="spacing" textLength="82.3252" x="478" y="340.1514">start(): void</text><ellipse cx="469" cy="353.1016" fill="#84BE84" rx="3" ry="3" style="stroke:#038048;stroke-width:1.0;"/><text fill="#000000" font-family="sans-serif" font-size="14" lengthAdjust="spacing" textLength="79.9531" x="478" y="356.4482">stop(): void</text><ellipse cx="469" cy="369.3984" fill="#84BE84" rx="3" ry="3" style="stroke:#038048;stroke-width:1.0;"/><text fill="#000000" font-family="sans-serif" font-size="14" lengthAdjust="spacing" textLength="145.2432" x="478" y="372.7451">isRunning(): boolean</text><ellipse cx="469" cy="385.6953" fill="#84BE84" rx="3" ry="3" style="stroke:#038048;stroke-width:1.0;"/><text fill="#000000" font-family="sans-serif" font-size="14" lengthAdjust="spacing" textLength="123.1289" x="478" y="389.042">getPowerHP(): int</text></g><!--class CombustionEngine--><g id="elem_CombustionEngine"><rect codeLine="33" fill="#F1F1F1" height="72.5625" id="CombustionEngine" rx="2.5" ry="2.5" style="stroke:#181818;stroke-width:0.5;" width="163.8311" x="142.5" y="468.2969"/><ellipse cx="157.5" cy="488.4297" fill="#ADD1B2" rx="11" ry="11" style="stroke:#181818;stroke-width:1.0;"/><path d="M160.4688,494.0703 Q159.8906,494.3672 159.25,494.5078 Q158.6094,494.6641 157.9063,494.6641 Q155.4063,494.6641 154.0781,493.0234 Q152.7656,491.3672 152.7656,488.2422 Q152.7656,485.1172 154.0781,483.4609 Q155.4063,481.8047 157.9063,481.8047 Q158.6094,481.8047 159.25,481.9609 Q159.9063,482.1172 160.4688,482.4141 L160.4688,485.1328 Q159.8438,484.5547 159.25,484.2891 Q158.6563,484.0078 158.0313,484.0078 Q156.6875,484.0078 156,485.0859 Q155.3125,486.1484 155.3125,488.2422 Q155.3125,490.3359 156,491.4141 Q156.6875,492.4766 158.0313,492.4766 Q158.6563,492.4766 159.25,492.2109 Q159.8438,491.9297 160.4688,491.3516 L160.4688,494.0703 Z " fill="#000000"/><text fill="#000000" font-family="sans-serif" font-size="12" font-style="italic" lengthAdjust="spacing" textLength="40.6641" x="217.0835" y="484.4355">&#171;final&#187;</text><text fill="#000000" font-family="sans-serif" font-size="14" lengthAdjust="spacing" textLength="131.8311" x="171.5" y="500.2607">CombustionEngine</text><line style="stroke:#181818;stroke-width:0.5;" x1="143.5" x2="305.3311" y1="508.5625" y2="508.5625"/><rect fill="none" height="6" style="stroke:#C82930;stroke-width:1.0;" width="6" x="150.5" y="519.2109"/><text fill="#000000" font-family="sans-serif" font-size="14" lengthAdjust="spacing" textLength="133.5742" x="162.5" y="525.5576">fuelType: FuelType</text><line style="stroke:#181818;stroke-width:0.5;" x1="143.5" x2="305.3311" y1="532.8594" y2="532.8594"/></g><!--class ElectricMotor--><g id="elem_ElectricMotor"><rect codeLine="37" fill="#F1F1F1" height="72.5625" id="ElectricMotor" rx="2.5" ry="2.5" style="stroke:#181818;stroke-width:0.5;" width="165.877" x="602.5" y="468.2969"/><ellipse cx="636.1948" cy="488.4297" fill="#ADD1B2" rx="11" ry="11" style="stroke:#181818;stroke-width:1.0;"/><path d="M639.1635,494.0703 Q638.5854,494.3672 637.9448,494.5078 Q637.3042,494.6641 636.601,494.6641 Q634.101,494.6641 632.7729,493.0234 Q631.4604,491.3672 631.4604,488.2422 Q631.4604,485.1172 632.7729,483.4609 Q634.101,481.8047 636.601,481.8047 Q637.3042,481.8047 637.9448,481.9609 Q638.601,482.1172 639.1635,482.4141 L639.1635,485.1328 Q638.5385,484.5547 637.9448,484.2891 Q637.351,484.0078 636.726,484.0078 Q635.3823,484.0078 634.6948,485.0859 Q634.0073,486.1484 634.0073,488.2422 Q634.0073,490.3359 634.6948,491.4141 Q635.3823,492.4766 636.726,492.4766 Q637.351,492.4766 637.9448,492.2109 Q638.5385,491.9297 639.1635,491.3516 L639.1635,494.0703 Z " fill="#000000"/><text fill="#000000" font-family="sans-serif" font-size="12" font-style="italic" lengthAdjust="spacing" textLength="40.6641" x="680.1836" y="484.4355">&#171;final&#187;</text><text fill="#000000" font-family="sans-serif" font-size="14" lengthAdjust="spacing" textLength="92.333" x="654.3492" y="500.2607">ElectricMotor</text><line style="stroke:#181818;stroke-width:0.5;" x1="603.5" x2="767.377" y1="508.5625" y2="508.5625"/><rect fill="none" height="6" style="stroke:#C82930;stroke-width:1.0;" width="6" x="610.5" y="519.2109"/><text fill="#000000" font-family="sans-serif" font-size="14" lengthAdjust="spacing" textLength="139.877" x="622.5" y="525.5576">batteryKWh: double</text><line style="stroke:#181818;stroke-width:0.5;" x1="603.5" x2="767.377" y1="532.8594" y2="532.8594"/></g><!--class Car--><g id="elem_Car"><rect codeLine="41" fill="#F1F1F1" height="56.2656" id="Car" rx="2.5" ry="2.5" style="stroke:#181818;stroke-width:0.5;" width="68.6641" x="354" y="291.2969"/><ellipse cx="369" cy="311.4297" fill="#ADD1B2" rx="11" ry="11" style="stroke:#181818;stroke-width:1.0;"/><path d="M371.9688,317.0703 Q371.3906,317.3672 370.75,317.5078 Q370.1094,317.6641 369.4063,317.6641 Q366.9063,317.6641 365.5781,316.0234 Q364.2656,314.3672 364.2656,311.2422 Q364.2656,308.1172 365.5781,306.4609 Q366.9063,304.8047 369.4063,304.8047 Q370.1094,304.8047 370.75,304.9609 Q371.4063,305.1172 371.9688,305.4141 L371.9688,308.1328 Q371.3438,307.5547 370.75,307.2891 Q370.1563,307.0078 369.5313,307.0078 Q368.1875,307.0078 367.5,308.0859 Q366.8125,309.1484 366.8125,311.2422 Q366.8125,313.3359 367.5,314.4141 Q368.1875,315.4766 369.5313,315.4766 Q370.1563,315.4766 370.75,315.2109 Q371.3438,314.9297 371.9688,314.3516 L371.9688,317.0703 Z " fill="#000000"/><text fill="#000000" font-family="sans-serif" font-size="12" font-style="italic" lengthAdjust="spacing" textLength="40.6641" x="381" y="307.4355">&#171;final&#187;</text><text fill="#000000" font-family="sans-serif" font-size="14" lengthAdjust="spacing" textLength="24.1104" x="389.2769" y="323.2607">Car</text><line style="stroke:#181818;stroke-width:0.5;" x1="355" x2="421.6641" y1="331.5625" y2="331.5625"/><line style="stroke:#181818;stroke-width:0.5;" x1="355" x2="421.6641" y1="339.5625" y2="339.5625"/></g><!--class ElectricCar--><g id="elem_ElectricCar"><rect codeLine="42" fill="#F1F1F1" height="56.2656" id="ElectricCar" rx="2.5" ry="2.5" style="stroke:#181818;stroke-width:0.5;" width="107.9883" x="664.5" y="291.2969"/><ellipse cx="679.5" cy="311.4297" fill="#ADD1B2" rx="11" ry="11" style="stroke:#181818;stroke-width:1.0;"/><path d="M682.4688,317.0703 Q681.8906,317.3672 681.25,317.5078 Q680.6094,317.6641 679.9063,317.6641 Q677.4063,317.6641 676.0781,316.0234 Q674.7656,314.3672 674.7656,311.2422 Q674.7656,308.1172 676.0781,306.4609 Q677.4063,304.8047 679.9063,304.8047 Q680.6094,304.8047 681.25,304.9609 Q681.9063,305.1172 682.4688,305.4141 L682.4688,308.1328 Q681.8438,307.5547 681.25,307.2891 Q680.6563,307.0078 680.0313,307.0078 Q678.6875,307.0078 678,308.0859 Q677.3125,309.1484 677.3125,311.2422 Q677.3125,313.3359 678,314.4141 Q678.6875,315.4766 680.0313,315.4766 Q680.6563,315.4766 681.25,315.2109 Q681.8438,314.9297 682.4688,314.3516 L682.4688,317.0703 Z " fill="#000000"/><text fill="#000000" font-family="sans-serif" font-size="12" font-style="italic" lengthAdjust="spacing" textLength="40.6641" x="711.1621" y="307.4355">&#171;final&#187;</text><text fill="#000000" font-family="sans-serif" font-size="14" lengthAdjust="spacing" textLength="75.9883" x="693.5" y="323.2607">ElectricCar</text><line style="stroke:#181818;stroke-width:0.5;" x1="665.5" x2="771.4883" y1="331.5625" y2="331.5625"/><line style="stroke:#181818;stroke-width:0.5;" x1="665.5" x2="771.4883" y1="339.5625" y2="339.5625"/></g><!--class Airplane--><g id="elem_Airplane"><rect codeLine="43" fill="#F1F1F1" height="56.2656" id="Airplane" rx="2.5" ry="2.5" style="stroke:#181818;stroke-width:0.5;" width="90.0645" x="228.5" y="291.2969"/><ellipse cx="243.5" cy="311.4297" fill="#ADD1B2" rx="11" ry="11" style="stroke:#181818;stroke-width:1.0;"/><path d="M246.4688,317.0703 Q245.8906,317.3672 245.25,317.5078 Q244.6094,317.6641 243.9063,317.6641 Q241.4063,317.6641 240.0781,316.0234 Q238.7656,314.3672 238.7656,311.2422 Q238.7656,308.1172 240.0781,306.4609 Q241.4063,304.8047 243.9063,304.8047 Q244.6094,304.8047 245.25,304.9609 Q245.9063,305.1172 246.4688,305.4141 L246.4688,308.1328 Q245.8438,307.5547 245.25,307.2891 Q244.6563,307.0078 244.0313,307.0078 Q242.6875,307.0078 242,308.0859 Q241.3125,309.1484 241.3125,311.2422 Q241.3125,313.3359 242,314.4141 Q242.6875,315.4766 244.0313,315.4766 Q244.6563,315.4766 245.25,315.2109 Q245.8438,314.9297 246.4688,314.3516 L246.4688,317.0703 Z " fill="#000000"/><text fill="#000000" font-family="sans-serif" font-size="12" font-style="italic" lengthAdjust="spacing" textLength="40.6641" x="266.2002" y="307.4355">&#171;final&#187;</text><text fill="#000000" font-family="sans-serif" font-size="14" lengthAdjust="spacing" textLength="58.0645" x="257.5" y="323.2607">Airplane</text><line style="stroke:#181818;stroke-width:0.5;" x1="229.5" x2="317.5645" y1="331.5625" y2="331.5625"/><line style="stroke:#181818;stroke-width:0.5;" x1="229.5" x2="317.5645" y1="339.5625" y2="339.5625"/></g><!--class Ship--><g id="elem_Ship"><rect codeLine="44" fill="#F1F1F1" height="56.2656" id="Ship" rx="2.5" ry="2.5" style="stroke:#181818;stroke-width:0.5;" width="68.6641" x="7" y="291.2969"/><ellipse cx="22" cy="311.4297" fill="#ADD1B2" rx="11" ry="11" style="stroke:#181818;stroke-width:1.0;"/><path d="M24.9688,317.0703 Q24.3906,317.3672 23.75,317.5078 Q23.1094,317.6641 22.4063,317.6641 Q19.9063,317.6641 18.5781,316.0234 Q17.2656,314.3672 17.2656,311.2422 Q17.2656,308.1172 18.5781,306.4609 Q19.9063,304.8047 22.4063,304.8047 Q23.1094,304.8047 23.75,304.9609 Q24.4063,305.1172 24.9688,305.4141 L24.9688,308.1328 Q24.3438,307.5547 23.75,307.2891 Q23.1563,307.0078 22.5313,307.0078 Q21.1875,307.0078 20.5,308.0859 Q19.8125,309.1484 19.8125,311.2422 Q19.8125,313.3359 20.5,314.4141 Q21.1875,315.4766 22.5313,315.4766 Q23.1563,315.4766 23.75,315.2109 Q24.3438,314.9297 24.9688,314.3516 L24.9688,317.0703 Z " fill="#000000"/><text fill="#000000" font-family="sans-serif" font-size="12" font-style="italic" lengthAdjust="spacing" textLength="40.6641" x="34" y="307.4355">&#171;final&#187;</text><text fill="#000000" font-family="sans-serif" font-size="14" lengthAdjust="spacing" textLength="30.5361" x="39.064" y="323.2607">Ship</text><line style="stroke:#181818;stroke-width:0.5;" x1="8" x2="74.6641" y1="331.5625" y2="331.5625"/><line style="stroke:#181818;stroke-width:0.5;" x1="8" x2="74.6641" y1="339.5625" y2="339.5625"/></g><!--class Bicycle--><g id="elem_Bicycle"><rect codeLine="45" fill="#F1F1F1" height="56.2656" id="Bicycle" rx="2.5" ry="2.5" style="stroke:#181818;stroke-width:0.5;" width="81.6768" x="111.5" y="291.2969"/><ellipse cx="126.5" cy="311.4297" fill="#ADD1B2" rx="11" ry="11" style="stroke:#181818;stroke-width:1.0;"/><path d="M129.4688,317.0703 Q128.8906,317.3672 128.25,317.5078 Q127.6094,317.6641 126.9063,317.6641 Q124.4063,317.6641 123.0781,316.0234 Q121.7656,314.3672 121.7656,311.2422 Q121.7656,308.1172 123.0781,306.4609 Q124.4063,304.8047 126.9063,304.8047 Q127.6094,304.8047 128.25,304.9609 Q128.9063,305.1172 129.4688,305.4141 L129.4688,308.1328 Q128.8438,307.5547 128.25,307.2891 Q127.6563,307.0078 127.0313,307.0078 Q125.6875,307.0078 125,308.0859 Q124.3125,309.1484 124.3125,311.2422 Q124.3125,313.3359 125,314.4141 Q125.6875,315.4766 127.0313,315.4766 Q127.6563,315.4766 128.25,315.2109 Q128.8438,314.9297 129.4688,314.3516 L129.4688,317.0703 Z " fill="#000000"/><text fill="#000000" font-family="sans-serif" font-size="12" font-style="italic" lengthAdjust="spacing" textLength="40.6641" x="145.0063" y="307.4355">&#171;final&#187;</text><text fill="#000000" font-family="sans-serif" font-size="14" lengthAdjust="spacing" textLength="49.6768" x="140.5" y="323.2607">Bicycle</text><line style="stroke:#181818;stroke-width:0.5;" x1="112.5" x2="192.1768" y1="331.5625" y2="331.5625"/><line style="stroke:#181818;stroke-width:0.5;" x1="112.5" x2="192.1768" y1="339.5625" y2="339.5625"/></g><!--reverse link Transport to Car--><g id="link_Transport_Car"><path codeLine="47" d="M320.7895,198.1869 C341.7495,235.3669 357.68,263.6269 373.24,291.2269 " fill="none" id="Transport-backto-Car" style="stroke:#181818;stroke-width:1.0;"/><polygon fill="none" points="311.95,182.5069,315.5628,201.1334,326.0162,195.2404,311.95,182.5069" style="stroke:#181818;stroke-width:1.0;"/></g><!--reverse link Transport to ElectricCar--><g id="link_Transport_ElectricCar"><path codeLine="48" d="M386.2499,137.7905 C465.1599,156.7905 560.41,186.9369 646.5,242.2969 C666.68,255.2769 685.19,275.0769 698.39,291.2069 " fill="none" id="Transport-backto-ElectricCar" style="stroke:#181818;stroke-width:1.0;"/><polygon fill="none" points="368.75,133.5769,384.8453,143.6238,387.6544,131.9572,368.75,133.5769" style="stroke:#181818;stroke-width:1.0;"/></g><!--reverse link Transport to Airplane--><g id="link_Transport_Airplane"><path codeLine="49" d="M273.5,200.5069 C273.5,237.6869 273.5,263.6269 273.5,291.2269 " fill="none" id="Transport-backto-Airplane" style="stroke:#181818;stroke-width:1.0;"/><polygon fill="none" points="273.5,182.5069,267.5,200.5069,279.5,200.5069,273.5,182.5069" style="stroke:#181818;stroke-width:1.0;"/></g><!--reverse link Transport to Ship--><g id="link_Transport_Ship"><path codeLine="50" d="M163.5775,182.8971 C134.6175,203.0171 118.62,216.7169 93.5,242.2969 C79.16,256.8969 66.16,275.8969 56.75,291.2469 " fill="none" id="Transport-backto-Ship" style="stroke:#181818;stroke-width:1.0;"/><polygon fill="none" points="178.36,172.6269,160.1541,177.9695,167.0009,187.8246,178.36,172.6269" style="stroke:#181818;stroke-width:1.0;"/></g><!--reverse link Transport to Bicycle--><g id="link_Transport_Bicycle"><path codeLine="51" d="M223.8582,197.9889 C201.8082,235.1689 184.93,263.6269 168.56,291.2269 " fill="none" id="Transport-backto-Bicycle" style="stroke:#181818;stroke-width:1.0;"/><polygon fill="none" points="233.04,182.5069,218.6975,194.9283,229.0189,201.0495,233.04,182.5069" style="stroke:#181818;stroke-width:1.0;"/></g><!--reverse link Engine to CombustionEngine--><g id="link_Engine_CombustionEngine"><path codeLine="53" d="M443.0231,395.0715 C437.1731,398.9715 446.28,392.7569 440.5,396.2969 C415.08,411.8369 351.22,443.2969 299.48,468.1869 " fill="none" id="Engine-backto-CombustionEngine" style="stroke:#181818;stroke-width:1.0;"/><polygon fill="none" points="458,385.0869,439.6949,390.0792,446.3513,400.0638,458,385.0869" style="stroke:#181818;stroke-width:1.0;"/></g><!--reverse link Engine to ElectricMotor--><g id="link_Engine_ElectricMotor"><path codeLine="54" d="M613.5063,410.7621 C632.7063,435.5721 642.1,447.7169 657.88,468.0969 " fill="none" id="Engine-backto-ElectricMotor" style="stroke:#181818;stroke-width:1.0;"/><polygon fill="none" points="602.49,396.5269,608.7613,414.4342,618.2514,407.0899,602.49,396.5269" style="stroke:#181818;stroke-width:1.0;"/></g><!--link CombustionEngine to FuelType--><g id="link_CombustionEngine_FuelType"><path codeLine="56" d="M224.5,541.5669 C224.5,562.5569 224.5,583.5369 224.5,607.2469 " fill="none" id="CombustionEngine-to-FuelType" style="stroke:#181818;stroke-width:1.0;"/><polygon fill="#181818" points="224.5,613.2469,228.5,604.2469,224.5,608.2469,220.5,604.2469,224.5,613.2469" style="stroke:#181818;stroke-width:1.0;"/></g><!--link Car to EnginePowered--><g id="link_Car_EnginePowered"><path codeLine="57" d="M393.37,347.3769 C398.5,375.8869 403.4834,403.6412 409.7034,438.2212 " fill="none" id="Car-to-EnginePowered" style="stroke:#181818;stroke-width:1.0;stroke-dasharray:7.0,7.0;"/><polygon fill="none" points="412.89,455.9369,415.6087,437.159,403.7982,439.2834,412.89,455.9369" style="stroke:#181818;stroke-width:1.0;"/></g><!--link ElectricCar to EnginePowered--><g id="link_ElectricCar_EnginePowered"><path codeLine="58" d="M697.23,347.3069 C683.87,363.0169 665.61,382.3969 646.5,396.2969 C602.13,428.5869 563.1521,448.3159 518.3321,467.0159 " fill="none" id="ElectricCar-to-EnginePowered" style="stroke:#181818;stroke-width:1.0;stroke-dasharray:7.0,7.0;"/><polygon fill="none" points="501.72,473.9469,520.6424,472.5533,516.0218,461.4785,501.72,473.9469" style="stroke:#181818;stroke-width:1.0;"/></g><!--link Airplane to EnginePowered--><g id="link_Airplane_EnginePowered"><path codeLine="59" d="M295.34,347.3769 C318.33,375.8869 343.7097,407.346 371.5997,441.926 " fill="none" id="Airplane-to-EnginePowered" style="stroke:#181818;stroke-width:1.0;stroke-dasharray:7.0,7.0;"/><polygon fill="none" points="382.9,455.9369,376.27,438.1593,366.9295,445.6928,382.9,455.9369" style="stroke:#181818;stroke-width:1.0;"/></g><!--link Ship to EnginePowered--><g id="link_Ship_EnginePowered"><path codeLine="60" d="M53.93,347.6069 C62.75,364.0369 76.1,384.0769 93.5,396.2969 C180.29,457.2769 225.03,419.4569 324.5,456.2969 C330.04,458.3469 319.1066,453.5938 324.7466,455.9838 " fill="none" id="Ship-to-EnginePowered" style="stroke:#181818;stroke-width:1.0;stroke-dasharray:7.0,7.0;"/><polygon fill="none" points="341.32,463.0069,327.0877,450.4593,322.4056,461.5082,341.32,463.0069" style="stroke:#181818;stroke-width:1.0;"/></g><!--link Car to CombustionEngine--><g id="link_Car_CombustionEngine"><path codeLine="62" d="M371.97,347.2969 C362.32,362.2769 349.52,380.9269 336.5,396.2969 C314.81,421.8969 292.1607,443.992 270.0607,464.072 " fill="none" id="Car-to-CombustionEngine" style="stroke:#181818;stroke-width:1.0;"/><polygon fill="#181818" points="265.62,468.1069,274.971,465.0151,269.3206,464.7445,269.5912,459.0941,265.62,468.1069" style="stroke:#181818;stroke-width:1.0;"/></g><!--link ElectricCar to ElectricMotor--><g id="link_ElectricCar_ElectricMotor"><path codeLine="63" d="M713.63,347.3769 C707.88,379.3769 699.3421,426.8316 692.9821,462.1916 " fill="none" id="ElectricCar-to-ElectricMotor" style="stroke:#181818;stroke-width:1.0;"/><polygon fill="#181818" points="691.92,468.0969,697.45,459.9471,692.8051,463.1758,689.5764,458.5309,691.92,468.0969" style="stroke:#181818;stroke-width:1.0;"/></g><!--link Airplane to CombustionEngine--><g id="link_Airplane_CombustionEngine"><path codeLine="64" d="M266.27,347.3769 C257.72,379.3769 245.0291,426.9403 235.5791,462.3003 " fill="none" id="Airplane-to-CombustionEngine" style="stroke:#181818;stroke-width:1.0;"/><polygon fill="#181818" points="234.03,468.0969,240.2181,460.4348,235.3209,463.2664,232.4893,458.3693,234.03,468.0969" style="stroke:#181818;stroke-width:1.0;"/></g><!--link Ship to CombustionEngine--><g id="link_Ship_CombustionEngine"><path codeLine="65" d="M57.35,347.3369 C66.88,362.5069 79.78,381.3269 93.5,396.2969 C117.85,422.8669 144.1177,444.9902 169.8777,464.6202 " fill="none" id="Ship-to-CombustionEngine" style="stroke:#181818;stroke-width:1.0;"/><polygon fill="#181818" points="174.65,468.2569,169.916,459.6204,170.6731,465.2263,165.0671,465.9834,174.65,468.2569" style="stroke:#181818;stroke-width:1.0;"/></g><!--SRC=[RLDBRjim5Dpp56zf8r0E80G6KbTftJg94RdeCg0esY50am99fJMQ0cc0hhljCR89a4tRAqWtAad9iduxSkQzD_E6ac66KoX-5o_bO_5SFfO_YzVo5vHFxbhyANyK_ug_5dugdc4IKynf2YSGYNmtHOW9GzK64sg1BHDq9RzGPGk-8O2J2e8jDTLfCdMeDbZr09arz-y8KJiQBdBAr_kC-adlpkFhvU8giiUtYoYEblRm8LhVNdponsWPpTStYxbhneas2XC3X6EjOQsmq9bK1ixEjFS-c_cH0UnaIda8iL5CR3r2S8O9C_iGx5hEcRD-YR_66QNfP1f2AlE4Ky_iv3rrqBragGSIh1bPY8rqQ3rqwAUEP60cSxczNnsK0r2v47P428cKd6BXDNnq7LMNNGTW-gRgT6YxrwwogaGSusIikyhKNEwIN1icHMDlmmJcZRjD_HXXyop7veXJOhSbbz98DUXCiB4VoFxZvxiclQCiRjNtfernvqnb7BVjrKHynx81-8QHFU7jOjJw61w2mEdtePPydpgezt4dtiTgROGEUNgvNieTifCYGeCN2OBPCNiNpkdfmwpxpw5sTYDq4zy8vnCSmRsKqnwQRucvWku2ZTPehrSRPVu3]--></g></svg>